<svg width="40" height="40" viewBox="0 0 40 40" fill="none" xmlns="http://www.w3.org/2000/svg">
<g id="mdi:account">
<path id="Vector" d="M19.9998 6.66675C21.7679 6.66675 23.4636 7.36913 24.7139 8.61937C25.9641 9.86961 26.6665 11.5653 26.6665 13.3334C26.6665 15.1015 25.9641 16.7972 24.7139 18.0475C23.4636 19.2977 21.7679 20.0001 19.9998 20.0001C18.2317 20.0001 16.536 19.2977 15.2858 18.0475C14.0355 16.7972 13.3332 15.1015 13.3332 13.3334C13.3332 11.5653 14.0355 9.86961 15.2858 8.61937C16.536 7.36913 18.2317 6.66675 19.9998 6.66675ZM19.9998 23.3334C27.3665 23.3334 33.3332 26.3167 33.3332 30.0001V33.3334H6.6665V30.0001C6.6665 26.3167 12.6332 23.3334 19.9998 23.3334Z" fill="#003366"/>
</g>
</svg>
