<svg xmlns="http://www.w3.org/2000/svg" width="24" height="25" viewBox="0 0 24 25" fill="none">
<path d="M17 17.5C17.4167 17.5 17.7708 17.3542 18.0625 17.0625C18.3542 16.7708 18.5 16.4167 18.5 16C18.5 15.5833 18.3542 15.2292 18.0625 14.9375C17.7708 14.6458 17.4167 14.5 17 14.5C16.5833 14.5 16.2292 14.6458 15.9375 14.9375C15.6458 15.2292 15.5 15.5833 15.5 16C15.5 16.4167 15.6458 16.7708 15.9375 17.0625C16.2292 17.3542 16.5833 17.5 17 17.5ZM17 20.5C17.5167 20.5 17.9917 20.3792 18.425 20.1375C18.8583 19.8958 19.2083 19.575 19.475 19.175C19.1083 18.9583 18.7167 18.7917 18.3 18.675C17.8833 18.5583 17.45 18.5 17 18.5C16.55 18.5 16.1167 18.5583 15.7 18.675C15.2833 18.7917 14.8917 18.9583 14.525 19.175C14.7917 19.575 15.1417 19.8958 15.575 20.1375C16.0083 20.3792 16.4833 20.5 17 20.5ZM12 22.5C9.68333 21.9167 7.77083 20.5875 6.2625 18.5125C4.75417 16.4375 4 14.1333 4 11.6V5.5L12 2.5L20 5.5V11.175C19.6833 11.0417 19.3583 10.9208 19.025 10.8125C18.6917 10.7042 18.35 10.625 18 10.575V6.9L12 4.65L6 6.9V11.6C6 12.3833 6.10417 13.1667 6.3125 13.95C6.52083 14.7333 6.8125 15.4792 7.1875 16.1875C7.5625 16.8958 8.01667 17.55 8.55 18.15C9.08333 18.75 9.675 19.25 10.325 19.65C10.5083 20.1833 10.75 20.6917 11.05 21.175C11.35 21.6583 11.6917 22.0917 12.075 22.475C12.0583 22.475 12.0458 22.4792 12.0375 22.4875C12.0292 22.4958 12.0167 22.5 12 22.5ZM17 22.5C15.6167 22.5 14.4375 22.0125 13.4625 21.0375C12.4875 20.0625 12 18.8833 12 17.5C12 16.1167 12.4875 14.9375 13.4625 13.9625C14.4375 12.9875 15.6167 12.5 17 12.5C18.3833 12.5 19.5625 12.9875 20.5375 13.9625C21.5125 14.9375 22 16.1167 22 17.5C22 18.8833 21.5125 20.0625 20.5375 21.0375C19.5625 22.0125 18.3833 22.5 17 22.5Z" fill="#003366"/>
</svg>
