<svg xmlns="http://www.w3.org/2000/svg" width="46" height="45" viewBox="0 0 46 45" fill="none">
  <path d="M22.8336 39.375C18.5211 39.375 14.7633 37.9453 11.5602 35.0859C8.35706 32.2266 6.52112 28.6562 6.05237 24.375H9.89612C10.3336 27.625 11.7789 30.3125 14.2321 32.4375C16.6852 34.5625 19.5524 35.625 22.8336 35.625C26.4899 35.625 29.5914 34.3516 32.1383 31.8047C34.6852 29.2578 35.9586 26.1562 35.9586 22.5C35.9586 18.8438 34.6852 15.7422 32.1383 13.1953C29.5914 10.6484 26.4899 9.375 22.8336 9.375C20.6774 9.375 18.6617 9.875 16.7867 10.875C14.9117 11.875 13.3336 13.25 12.0524 15H17.2086V18.75H5.95862V7.5H9.70862V11.9062C11.3024 9.90625 13.2477 8.35938 15.5446 7.26562C17.8414 6.17188 20.2711 5.625 22.8336 5.625C25.1774 5.625 27.3727 6.07031 29.4196 6.96094C31.4664 7.85156 33.2477 9.05469 34.7633 10.5703C36.2789 12.0859 37.4821 13.8672 38.3727 15.9141C39.2633 17.9609 39.7086 20.1562 39.7086 22.5C39.7086 24.8438 39.2633 27.0391 38.3727 29.0859C37.4821 31.1328 36.2789 32.9141 34.7633 34.4297C33.2477 35.9453 31.4664 37.1484 29.4196 38.0391C27.3727 38.9297 25.1774 39.375 22.8336 39.375ZM28.0836 30.375L20.9586 23.25V13.125H24.7086V21.75L30.7086 27.75L28.0836 30.375Z" fill="#2D2D2D"/>
</svg>
