<svg width="20" height="20" viewBox="0 0 20 20" fill="none" xmlns="http://www.w3.org/2000/svg">
<path d="M17.8351 15.0312C18.3351 15.9062 17.7101 17 16.6788 17H3.33511C2.30386 17 1.67886 15.9062 2.14761 15.0312L8.83511 3.65625C9.11636 3.21875 9.55386 3 10.0226 3C10.4601 3 10.8976 3.21875 11.1789 3.65625L17.8351 15.0312ZM3.64761 15.5H16.3664L9.99136 4.65625L3.64761 15.5ZM10.0226 12.5625C10.5539 12.5625 10.9914 13 10.9914 13.5312C10.9914 14.0625 10.5539 14.5 10.0226 14.5C9.46011 14.5 9.02261 14.0625 9.02261 13.5312C9.02261 13 9.46011 12.5625 10.0226 12.5625ZM9.27261 7.75C9.27261 7.34375 9.58511 7 10.0226 7C10.4289 7 10.7726 7.34375 10.7726 7.75V10.75C10.7726 11.1875 10.4289 11.5 10.0226 11.5C9.58511 11.5 9.27261 11.1875 9.27261 10.75V7.75Z" fill="#F8BB47"/>
</svg>
