<svg width="38" height="38" viewBox="0 0 38 38" fill="none" xmlns="http://www.w3.org/2000/svg">
<path fill-rule="evenodd" clip-rule="evenodd" d="M6.99175 34.0264C9.13467 36.1693 12.2026 36.1693 18.3384 36.1693H19.8801C26.0159 36.1693 29.0838 36.1693 31.2268 34.0264C33.3697 31.8834 33.3697 28.8001 33.3697 22.6797V16.513C33.3697 10.3772 33.3697 7.30927 31.2268 5.16635C29.0838 3.02344 26.0159 3.02344 19.8801 3.02344H19.1093C18.4772 3.02344 17.953 3.5476 17.953 4.17969C17.953 4.81177 18.4772 5.33594 19.1093 5.33594H19.8801C25.3684 5.33594 28.128 5.33594 29.5926 6.80052C31.0572 8.2651 31.0572 11.0247 31.0572 16.513V22.6797C31.0572 28.168 31.0572 30.9276 29.5926 32.3922C28.128 33.8568 25.3684 33.8568 19.8801 33.8568H18.3384C12.8501 33.8568 10.0905 33.8568 8.62592 32.3922C7.16134 30.9276 7.16134 28.168 7.16134 22.6797V14.9714C7.16134 14.3393 6.63717 13.8151 6.00509 13.8151C5.373 13.8151 4.84884 14.3393 4.84884 14.9714V22.6797C4.84884 28.8155 4.84884 31.8834 6.99175 34.0264ZM21.4218 28.4609H27.5884C28.2205 28.4609 28.7447 27.9368 28.7447 27.3047C28.7447 26.6726 28.2205 26.1484 27.5884 26.1484H21.4218C20.7897 26.1484 20.2655 26.6726 20.2655 27.3047C20.2655 27.9368 20.7897 28.4609 21.4218 28.4609ZM27.5884 13.0443H21.4218C20.7897 13.0443 20.2655 12.5201 20.2655 11.888C20.2655 11.2559 20.7897 10.7318 21.4218 10.7318H27.5884C28.2205 10.7318 28.7447 11.2559 28.7447 11.888C28.7447 12.5201 28.2205 13.0443 27.5884 13.0443ZM21.4218 20.7526H27.5884C28.2205 20.7526 28.7447 20.2284 28.7447 19.5964C28.7447 18.9643 28.2205 18.4401 27.5884 18.4401H21.4218C20.7897 18.4401 20.2655 18.9643 20.2655 19.5964C20.2655 20.2284 20.7897 20.7526 21.4218 20.7526ZM12.9426 30.0026C12.4801 30.0026 12.0638 29.7251 11.8788 29.3089C11.3377 28.0509 10.4358 27.6963 10.3187 27.6485L10.3063 27.6439C10.0171 27.5513 9.77508 27.3502 9.63128 27.0827C9.48748 26.8152 9.45314 26.5024 9.5355 26.2101C9.7205 25.6089 10.3372 25.2543 10.9384 25.4239C11.0772 25.4547 11.8788 25.7014 12.7113 26.4876C13.5438 24.8689 14.9776 22.6797 17.0588 21.6468C17.6293 21.3539 18.323 21.6005 18.6159 22.1709C18.9088 22.7414 18.6776 23.4351 18.0918 23.728C15.4863 25.0384 14.068 29.1855 14.0526 29.2318C13.8984 29.6789 13.4822 30.0026 13.0043 30.018H12.958L12.9426 30.0026ZM10.7072 14.2468C10.9384 14.478 11.2313 14.5859 11.5243 14.5859C11.8172 14.5859 12.1101 14.4626 12.3413 14.2468C12.5726 14.0309 12.9734 13.7072 13.4513 13.3218C15.6405 11.5489 17.1822 10.2076 17.1822 8.80469C17.1822 7.40177 15.6405 6.0451 13.4513 4.2876C12.9734 3.9176 12.5726 3.59385 12.3413 3.3626C12.1237 3.14757 11.8302 3.02698 11.5243 3.02698C11.2183 3.02698 10.9248 3.14757 10.7072 3.3626C10.2601 3.80969 10.2601 4.54969 10.7072 4.99677C10.9693 5.25885 11.4318 5.64427 11.9868 6.09135L12.2041 6.27019C12.6481 6.63248 13.2848 7.15202 13.8229 7.64844H5.99121C5.35913 7.64844 4.83496 8.1726 4.83496 8.80469C4.83496 9.43677 5.35913 9.96094 5.99121 9.96094H13.8229C13.1908 10.5468 12.4354 11.1634 11.9883 11.518L11.7262 11.7339C11.2961 12.0884 10.9261 12.3937 10.7087 12.6126C10.2616 13.0597 10.2601 13.7997 10.7072 14.2468Z" fill="#013366"/>
</svg>
