<svg width="38" height="38" viewBox="0 0 38 38" fill="none" xmlns="http://www.w3.org/2000/svg">
<path d="M21.0814 30.454L9.5759 32.5892C7.36978 32.9977 6.26594 33.2028 5.63078 32.5676C4.99561 31.9324 5.19911 30.8286 5.60919 28.6209L7.74594 17.1155C8.08819 15.2717 8.26086 14.3482 8.86828 13.7917C9.47569 13.2351 10.5888 13.1257 12.8134 12.9067C14.9563 12.6986 16.9852 11.9648 19.1003 9.84961L28.3503 19.0996C26.2352 21.2148 25.4998 23.2421 25.2901 25.3865C25.0727 27.6112 24.9633 28.7242 24.4067 29.3317C23.8487 29.9391 22.9267 30.1102 21.0814 30.454Z" stroke="#013366" stroke-width="1.5" stroke-linecap="round" stroke-linejoin="round"/>
<path d="M17.5588 24.0483C16.7003 23.9201 15.9046 23.5228 15.2863 22.9136C14.6772 22.2953 14.2799 21.4997 14.1517 20.6412M15.2879 22.9136L6.76709 31.4329M19.1004 9.84953C20.1981 8.23078 21.6858 5.50358 23.8904 5.24149C25.3935 5.06266 26.6407 6.30833 29.132 8.8012L29.3988 9.06791C31.8916 11.5592 33.1373 12.8065 32.9585 14.3096C32.6964 16.5142 29.9707 18.0019 28.3504 19.0995" stroke="#013366" stroke-width="1.5" stroke-linecap="round" stroke-linejoin="round"/>
</svg>
