<svg
  width="38"
  height="38"
  viewBox="0 0 38 38"
  fill="none"
  xmlns="http://www.w3.org/2000/svg">
  <path
    d="M34.5167 19.8705C34.5167 19.1135 34.509 17.5842 34.492 16.8241C34.3918 12.0989 34.3409 9.73555 32.5973 7.98576C30.8537 6.23443 28.4271 6.1743 23.5724 6.05251C20.5913 5.97729 17.6087 5.97729 14.6276 6.05251C9.77293 6.1743 7.34634 6.23443 5.60272 7.98576C3.85909 9.73555 3.80822 12.0989 3.70647 16.8241C3.67402 18.341 3.67402 19.8583 3.70647 21.3751C3.80822 26.1003 3.85909 28.4637 5.60272 30.2135C7.34634 31.9648 9.77293 32.025 14.6276 32.1468C15.8651 32.1776 17.0989 32.1961 18.3292 32.2023"
    stroke="#013366"
    stroke-width="1.5"
    stroke-linecap="round"
    stroke-linejoin="round" />
  <path
    d="M3.68311 9.84961L14.3406 15.9007C18.2349 18.1099 19.9646 18.1099 23.8589 15.9007L34.5164 9.84961M22.1831 27.5788H34.5164M22.1831 27.5788C22.1831 26.4996 25.2572 24.4831 26.0373 23.7246M22.1831 27.5788C22.1831 28.6579 25.2572 30.676 26.0373 31.4329"
    stroke="#013366"
    stroke-width="1.5"
    stroke-linecap="round"
    stroke-linejoin="round" />
</svg>
