<svg width="25" height="25" viewBox="0 0 25 25" fill="none" xmlns="http://www.w3.org/2000/svg">
<path d="M19.5122 5.18292C18.8415 5.18292 18.2673 4.9441 17.7896 4.46646C17.312 3.98881 17.0732 3.41463 17.0732 2.74389C17.0732 2.07316 17.312 1.49898 17.7896 1.02133C18.2673 0.543692 18.8415 0.304871 19.5122 0.304871C20.1829 0.304871 20.7571 0.543692 21.2348 1.02133C21.7124 1.49898 21.9512 2.07316 21.9512 2.74389C21.9512 3.41463 21.7124 3.98881 21.2348 4.46646C20.7571 4.9441 20.1829 5.18292 19.5122 5.18292ZM18.2927 24.6951V14.939C18.2927 14.126 18.0844 13.3943 17.6677 12.7439C17.251 12.0935 16.7175 11.5854 16.0671 11.2195L17.1341 8.07926C17.2967 7.57113 17.5965 7.16463 18.0335 6.85975C18.4705 6.55487 18.9634 6.40243 19.5122 6.40243C20.061 6.40243 20.5539 6.55487 20.9909 6.85975C21.4278 7.16463 21.7276 7.57113 21.8902 8.07926L25 17.378H21.9512V24.6951H18.2927ZM12.8049 11.8902C12.2967 11.8902 11.8648 11.7124 11.5091 11.3567C11.1535 11.001 10.9756 10.5691 10.9756 10.061C10.9756 9.55284 11.1535 9.12093 11.5091 8.76524C11.8648 8.40954 12.2967 8.2317 12.8049 8.2317C13.313 8.2317 13.7449 8.40954 14.1006 8.76524C14.4563 9.12093 14.6341 9.55284 14.6341 10.061C14.6341 10.5691 14.4563 11.001 14.1006 11.3567C13.7449 11.7124 13.313 11.8902 12.8049 11.8902ZM4.26829 5.18292C3.59756 5.18292 3.02337 4.9441 2.54573 4.46646C2.06809 3.98881 1.82927 3.41463 1.82927 2.74389C1.82927 2.07316 2.06809 1.49898 2.54573 1.02133C3.02337 0.543692 3.59756 0.304871 4.26829 0.304871C4.93902 0.304871 5.51321 0.543692 5.99085 1.02133C6.4685 1.49898 6.70732 2.07316 6.70732 2.74389C6.70732 3.41463 6.4685 3.98881 5.99085 4.46646C5.51321 4.9441 4.93902 5.18292 4.26829 5.18292ZM1.82927 24.6951V16.1585H0V8.84146C0 8.17072 0.238821 7.59654 0.716463 7.11889C1.19411 6.64125 1.76829 6.40243 2.43902 6.40243H6.09756C6.76829 6.40243 7.34248 6.64125 7.82012 7.11889C8.29776 7.59654 8.53659 8.17072 8.53659 8.84146V16.1585H6.70732V24.6951H1.82927ZM10.9756 24.6951V19.8171H9.7561V14.939C9.7561 14.4309 9.93394 13.999 10.2896 13.6433C10.6453 13.2876 11.0772 13.1097 11.5854 13.1097H14.0244C14.5325 13.1097 14.9644 13.2876 15.3201 13.6433C15.6758 13.999 15.8537 14.4309 15.8537 14.939V19.8171H14.6341V24.6951H10.9756Z" fill="#2D2D2D"/>
</svg>
