<svg width="24" height="24" viewBox="0 0 24 24" fill="none" xmlns="http://www.w3.org/2000/svg">
<g id="landscape_2_24dp_FILL0_wght400_GRAD0_opsz24 1">
<path id="Vector" d="M1.1499 20L4.5999 13.1C4.76657 12.7667 5.00407 12.5 5.3124 12.3C5.62074 12.1 5.96657 12 6.3499 12C6.7499 12 7.11657 12.1042 7.4499 12.3125C7.78324 12.5208 8.0249 12.8167 8.1749 13.2L8.8499 14.85C8.88324 14.95 8.95824 14.9958 9.0749 14.9875C9.19157 14.9792 9.26657 14.925 9.2999 14.825L11.4499 7.65C11.6832 6.85 12.1291 6.20833 12.7874 5.725C13.4457 5.24167 14.1916 5 15.0249 5C15.8416 5 16.5707 5.2375 17.2124 5.7125C17.8541 6.1875 18.2999 6.80833 18.5499 7.575L22.8749 20H20.7499L16.6499 8.2C16.5166 7.81667 16.3082 7.52083 16.0249 7.3125C15.7416 7.10417 15.4082 7 15.0249 7C14.6416 7 14.3041 7.10833 14.0124 7.325C13.7207 7.54167 13.5082 7.84167 13.3749 8.225L11.2249 15.4C11.0749 15.8667 10.8041 16.25 10.4124 16.55C10.0207 16.85 9.5749 17 9.0749 17C8.6249 17 8.20824 16.8792 7.8249 16.6375C7.44157 16.3958 7.16657 16.0583 6.9999 15.625L6.3249 13.975L3.3749 20H1.1499ZM5.9999 10C5.16657 10 4.45824 9.70417 3.8749 9.1125C3.29157 8.52083 2.9999 7.81667 2.9999 7C2.9999 6.16667 3.29157 5.45833 3.8749 4.875C4.45824 4.29167 5.16657 4 5.9999 4C6.83324 4 7.54157 4.29167 8.1249 4.875C8.70824 5.45833 8.9999 6.16667 8.9999 7C8.9999 7.81667 8.70824 8.52083 8.1249 9.1125C7.54157 9.70417 6.83324 10 5.9999 10ZM5.9999 8C6.28324 8 6.52074 7.90417 6.7124 7.7125C6.90407 7.52083 6.9999 7.28333 6.9999 7C6.9999 6.71667 6.90407 6.47917 6.7124 6.2875C6.52074 6.09583 6.28324 6 5.9999 6C5.71657 6 5.47907 6.09583 5.2874 6.2875C5.09574 6.47917 4.9999 6.71667 4.9999 7C4.9999 7.28333 5.09574 7.52083 5.2874 7.7125C5.47907 7.90417 5.71657 8 5.9999 8Z" fill="#313132"/>
</g>
</svg>
