<svg width="24" height="24" viewBox="0 0 24 24" fill="none" xmlns="http://www.w3.org/2000/svg">
<g id="material-symbols-light:lock-outline">
<path id="Vector" d="M6.616 21C6.168 21 5.78667 20.8427 5.472 20.528C5.15733 20.2133 5 19.8323 5 19.385V10.615C5 10.1683 5.15733 9.78733 5.472 9.472C5.78667 9.15733 6.168 9 6.616 9H8V7C8 5.886 8.38833 4.941 9.165 4.165C9.941 3.38833 10.886 3 12 3C13.114 3 14.0593 3.38833 14.836 4.165C15.6127 4.94167 16.0007 5.88667 16 7V9H17.385C17.8317 9 18.2127 9.15733 18.528 9.472C18.8427 9.78667 19 10.168 19 10.616V19.385C19 19.8317 18.8427 20.2127 18.528 20.528C18.2133 20.8427 17.8323 21 17.385 21H6.616ZM6.616 20H17.385C17.5643 20 17.7117 19.9423 17.827 19.827C17.9423 19.7117 18 19.5643 18 19.385V10.615C18 10.4357 17.9423 10.2883 17.827 10.173C17.7117 10.0577 17.5643 10 17.385 10H6.615C6.43567 10 6.28833 10.0577 6.173 10.173C6.05767 10.2883 6 10.436 6 10.616V19.385C6 19.5643 6.05767 19.7117 6.173 19.827C6.28833 19.9423 6.436 20 6.616 20ZM12 16.5C12.422 16.5 12.7773 16.3553 13.066 16.066C13.3553 15.7773 13.5 15.422 13.5 15C13.5 14.578 13.3553 14.2227 13.066 13.934C12.7767 13.6453 12.4213 13.5007 12 13.5C11.5787 13.4993 11.2233 13.644 10.934 13.934C10.6447 14.2227 10.5 14.578 10.5 15C10.5 15.422 10.6447 15.7773 10.934 16.066C11.2227 16.3553 11.578 16.5 12 16.5ZM9 9H15V7C15 6.16667 14.7083 5.45833 14.125 4.875C13.5417 4.29167 12.8333 4 12 4C11.1667 4 10.4583 4.29167 9.875 4.875C9.29167 5.45833 9 6.16667 9 7V9Z" fill="black"/>
</g>
</svg>
