<svg width="51" height="60" viewBox="0 0 51 60" fill="none" xmlns="http://www.w3.org/2000/svg">
<path d="M27 60L26.25 51H25.5C18.4 51 12.375 48.525 7.425 43.575C2.475 38.625 0 32.6 0 25.5C0 18.4 2.475 12.375 7.425 7.425C12.375 2.475 18.4 0 25.5 0C29.05 0 32.3625 0.6625 35.4375 1.9875C38.5125 3.3125 41.2125 5.1375 43.5375 7.4625C45.8625 9.7875 47.6875 12.4875 49.0125 15.5625C50.3375 18.6375 51 21.95 51 25.5C51 29.25 50.3875 32.85 49.1625 36.3C47.9375 39.75 46.2625 42.95 44.1375 45.9C42.0125 48.85 39.4875 51.525 36.5625 53.925C33.6375 56.325 30.45 58.35 27 60ZM33 49.05C36.55 46.05 39.4375 42.5375 41.6625 38.5125C43.8875 34.4875 45 30.15 45 25.5C45 20.05 43.1125 15.4375 39.3375 11.6625C35.5625 7.8875 30.95 6 25.5 6C20.05 6 15.4375 7.8875 11.6625 11.6625C7.8875 15.4375 6 20.05 6 25.5C6 30.95 7.8875 35.5625 11.6625 39.3375C15.4375 43.1125 20.05 45 25.5 45H33V49.05ZM25.425 41.925C26.275 41.925 27 41.625 27.6 41.025C28.2 40.425 28.5 39.7 28.5 38.85C28.5 38 28.2 37.275 27.6 36.675C27 36.075 26.275 35.775 25.425 35.775C24.575 35.775 23.85 36.075 23.25 36.675C22.65 37.275 22.35 38 22.35 38.85C22.35 39.7 22.65 40.425 23.25 41.025C23.85 41.625 24.575 41.925 25.425 41.925ZM23.25 32.4H27.75C27.75 30.9 27.9 29.85 28.2 29.25C28.5 28.65 29.45 27.55 31.05 25.95C31.95 25.05 32.7 24.075 33.3 23.025C33.9 21.975 34.2 20.85 34.2 19.65C34.2 17.1 33.3375 15.1875 31.6125 13.9125C29.8875 12.6375 27.85 12 25.5 12C23.3 12 21.45 12.6125 19.95 13.8375C18.45 15.0625 17.4 16.55 16.8 18.3L21 19.95C21.25 19.1 21.725 18.2625 22.425 17.4375C23.125 16.6125 24.15 16.2 25.5 16.2C26.85 16.2 27.8625 16.575 28.5375 17.325C29.2125 18.075 29.55 18.9 29.55 19.8C29.55 20.65 29.3 21.4125 28.8 22.0875C28.3 22.7625 27.7 23.45 27 24.15C25.25 25.65 24.1875 26.8375 23.8125 27.7125C23.4375 28.5875 23.25 30.15 23.25 32.4Z" fill="#474543"/>
</svg>
