<svg width="30" height="30" viewBox="0 0 30 30" fill="none" xmlns="http://www.w3.org/2000/svg">
<g id="person_check_24dp_FILL0_wght400_GRAD0_opsz24 1">
<path id="Vector" d="M21.9375 15L17.5 10.5625L19.2812 8.8125L21.9375 11.4688L27.25 6.15625L29 7.9375L21.9375 15ZM11.25 15C9.875 15 8.69792 14.5104 7.71875 13.5312C6.73958 12.5521 6.25 11.375 6.25 10C6.25 8.625 6.73958 7.44792 7.71875 6.46875C8.69792 5.48958 9.875 5 11.25 5C12.625 5 13.8021 5.48958 14.7812 6.46875C15.7604 7.44792 16.25 8.625 16.25 10C16.25 11.375 15.7604 12.5521 14.7812 13.5312C13.8021 14.5104 12.625 15 11.25 15ZM1.25 25V21.5C1.25 20.7917 1.43229 20.1406 1.79688 19.5469C2.16146 18.9531 2.64583 18.5 3.25 18.1875C4.54167 17.5417 5.85417 17.0573 7.1875 16.7344C8.52083 16.4115 9.875 16.25 11.25 16.25C12.625 16.25 13.9792 16.4115 15.3125 16.7344C16.6458 17.0573 17.9583 17.5417 19.25 18.1875C19.8542 18.5 20.3385 18.9531 20.7031 19.5469C21.0677 20.1406 21.25 20.7917 21.25 21.5V25H1.25ZM3.75 22.5H18.75V21.5C18.75 21.2708 18.6927 21.0625 18.5781 20.875C18.4635 20.6875 18.3125 20.5417 18.125 20.4375C17 19.875 15.8646 19.4531 14.7188 19.1719C13.5729 18.8906 12.4167 18.75 11.25 18.75C10.0833 18.75 8.92708 18.8906 7.78125 19.1719C6.63542 19.4531 5.5 19.875 4.375 20.4375C4.1875 20.5417 4.03646 20.6875 3.92188 20.875C3.80729 21.0625 3.75 21.2708 3.75 21.5V22.5ZM11.25 12.5C11.9375 12.5 12.526 12.2552 13.0156 11.7656C13.5052 11.276 13.75 10.6875 13.75 10C13.75 9.3125 13.5052 8.72396 13.0156 8.23438C12.526 7.74479 11.9375 7.5 11.25 7.5C10.5625 7.5 9.97396 7.74479 9.48438 8.23438C8.99479 8.72396 8.75 9.3125 8.75 10C8.75 10.6875 8.99479 11.276 9.48438 11.7656C9.97396 12.2552 10.5625 12.5 11.25 12.5Z" fill="#1E5C2B"/>
</g>
</svg>
