<svg width="30" height="30" viewBox="0 0 30 30" fill="none" xmlns="http://www.w3.org/2000/svg">
<g id="vaccines_24dp_FILL0_wght400_GRAD0_opsz24 1">
<path id="Vector" d="M10 28.125L7.5 26.25V21.25H6.25C5.5625 21.25 4.97396 21.0052 4.48438 20.5156C3.99479 20.026 3.75 19.4375 3.75 18.75V9.375C3.39583 9.375 3.09896 9.25521 2.85938 9.01562C2.61979 8.77604 2.5 8.47917 2.5 8.125C2.5 7.77083 2.61979 7.47396 2.85938 7.23438C3.09896 6.99479 3.39583 6.875 3.75 6.875H7.5V5H6.875C6.52083 5 6.22396 4.88021 5.98438 4.64062C5.74479 4.40104 5.625 4.10417 5.625 3.75C5.625 3.39583 5.74479 3.09896 5.98438 2.85938C6.22396 2.61979 6.52083 2.5 6.875 2.5H10.625C10.9792 2.5 11.276 2.61979 11.5156 2.85938C11.7552 3.09896 11.875 3.39583 11.875 3.75C11.875 4.10417 11.7552 4.40104 11.5156 4.64062C11.276 4.88021 10.9792 5 10.625 5H10V6.875H13.75C14.1042 6.875 14.401 6.99479 14.6406 7.23438C14.8802 7.47396 15 7.77083 15 8.125C15 8.47917 14.8802 8.77604 14.6406 9.01562C14.401 9.25521 14.1042 9.375 13.75 9.375V18.75C13.75 19.4375 13.5052 20.026 13.0156 20.5156C12.526 21.0052 11.9375 21.25 11.25 21.25H10V28.125ZM6.25 18.75H11.25V16.875H9.0625C8.8125 16.875 8.59375 16.7812 8.40625 16.5938C8.21875 16.4062 8.125 16.1875 8.125 15.9375C8.125 15.6875 8.21875 15.4688 8.40625 15.2812C8.59375 15.0938 8.8125 15 9.0625 15H11.25V13.125H9.0625C8.8125 13.125 8.59375 13.0312 8.40625 12.8438C8.21875 12.6562 8.125 12.4375 8.125 12.1875C8.125 11.9375 8.21875 11.7188 8.40625 11.5312C8.59375 11.3438 8.8125 11.25 9.0625 11.25H11.25V9.375H6.25V18.75ZM18.75 27.5C18.0625 27.5 17.474 27.2552 16.9844 26.7656C16.4948 26.276 16.25 25.6875 16.25 25V16.875C16.25 16.2708 16.3542 15.7708 16.5625 15.375C16.7708 14.9792 16.9896 14.6354 17.2188 14.3438C17.4479 14.0521 17.6562 13.8177 17.8438 13.6406C18.0312 13.4635 18.125 13.2917 18.125 13.125V12.5C17.7708 12.5 17.474 12.3802 17.2344 12.1406C16.9948 11.901 16.875 11.6042 16.875 11.25C16.875 10.8958 16.9948 10.599 17.2344 10.3594C17.474 10.1198 17.7708 10 18.125 10H24.375C24.7292 10 25.026 10.1198 25.2656 10.3594C25.5052 10.599 25.625 10.8958 25.625 11.25C25.625 11.6042 25.5052 11.901 25.2656 12.1406C25.026 12.3802 24.7292 12.5 24.375 12.5V13.125C24.375 13.2917 24.4792 13.4792 24.6875 13.6875C24.8958 13.8958 25.125 14.1458 25.375 14.4375C25.6042 14.7292 25.8073 15.0729 25.9844 15.4688C26.1615 15.8646 26.25 16.3333 26.25 16.875V25C26.25 25.6875 26.0052 26.276 25.5156 26.7656C25.026 27.2552 24.4375 27.5 23.75 27.5H18.75ZM18.75 17.5H23.75V16.875C23.75 16.5625 23.6562 16.2917 23.4688 16.0625C23.2812 15.8333 23.0729 15.5833 22.8438 15.3125C22.6146 15.0417 22.3958 14.7396 22.1875 14.4062C21.9792 14.0729 21.875 13.6458 21.875 13.125V12.5H20.625V13.125C20.625 13.625 20.526 14.0417 20.3281 14.375C20.1302 14.7083 19.9167 15.0104 19.6875 15.2812C19.4583 15.5521 19.2448 15.8073 19.0469 16.0469C18.849 16.2865 18.75 16.5625 18.75 16.875V17.5ZM18.75 21.25H23.75V19.375H18.75V21.25ZM18.75 25H23.75V23.125H18.75V25Z" fill="#003366"/>
</g>
</svg>
