<svg width="20" height="19" viewBox="0 0 20 19" fill="none" xmlns="http://www.w3.org/2000/svg">
<path id="Vector" d="M9 18.5V16.5H17V9.4C17 7.45 16.3208 5.79583 14.9625 4.4375C13.6042 3.07917 11.95 2.4 10 2.4C8.05 2.4 6.39583 3.07917 5.0375 4.4375C3.67917 5.79583 3 7.45 3 9.4V15.5H2C1.45 15.5 0.979167 15.3042 0.5875 14.9125C0.195833 14.5208 0 14.05 0 13.5V11.5C0 11.15 0.0875 10.8208 0.2625 10.5125C0.4375 10.2042 0.683333 9.95833 1 9.775L1.075 8.45C1.20833 7.31667 1.5375 6.26667 2.0625 5.3C2.5875 4.33333 3.24583 3.49167 4.0375 2.775C4.82917 2.05833 5.7375 1.5 6.7625 1.1C7.7875 0.7 8.86667 0.5 10 0.5C11.1333 0.5 12.2083 0.7 13.225 1.1C14.2417 1.5 15.15 2.05417 15.95 2.7625C16.75 3.47083 17.4083 4.30833 17.925 5.275C18.4417 6.24167 18.775 7.29167 18.925 8.425L19 9.725C19.3167 9.875 19.5625 10.1 19.7375 10.4C19.9125 10.7 20 11.0167 20 11.35V13.65C20 13.9833 19.9125 14.3 19.7375 14.6C19.5625 14.9 19.3167 15.125 19 15.275V16.5C19 17.05 18.8042 17.5208 18.4125 17.9125C18.0208 18.3042 17.55 18.5 17 18.5H9ZM7 11.5C6.71667 11.5 6.47917 11.4042 6.2875 11.2125C6.09583 11.0208 6 10.7833 6 10.5C6 10.2167 6.09583 9.97917 6.2875 9.7875C6.47917 9.59583 6.71667 9.5 7 9.5C7.28333 9.5 7.52083 9.59583 7.7125 9.7875C7.90417 9.97917 8 10.2167 8 10.5C8 10.7833 7.90417 11.0208 7.7125 11.2125C7.52083 11.4042 7.28333 11.5 7 11.5ZM13 11.5C12.7167 11.5 12.4792 11.4042 12.2875 11.2125C12.0958 11.0208 12 10.7833 12 10.5C12 10.2167 12.0958 9.97917 12.2875 9.7875C12.4792 9.59583 12.7167 9.5 13 9.5C13.2833 9.5 13.5208 9.59583 13.7125 9.7875C13.9042 9.97917 14 10.2167 14 10.5C14 10.7833 13.9042 11.0208 13.7125 11.2125C13.5208 11.4042 13.2833 11.5 13 11.5ZM4.025 9.95C3.90833 8.18333 4.44167 6.66667 5.625 5.4C6.80833 4.13333 8.28333 3.5 10.05 3.5C11.5333 3.5 12.8375 3.97083 13.9625 4.9125C15.0875 5.85417 15.7667 7.05833 16 8.525C14.4833 8.50833 13.0875 8.1 11.8125 7.3C10.5375 6.5 9.55833 5.41667 8.875 4.05C8.60833 5.38333 8.04583 6.57083 7.1875 7.6125C6.32917 8.65417 5.275 9.43333 4.025 9.95Z" fill="#1A5A96"/>
</svg>
