<svg width="50" height="50" viewBox="0 0 50 50" fill="none" xmlns="http://www.w3.org/2000/svg">
<g id="forward_to_inbox_24dp_FILL0_wght400_GRAD0_opsz24 1">
<path id="Vector" d="M25 45.8333L24.4792 39.5833H23.9583C19.0278 39.5833 14.8438 37.8646 11.4063 34.4271C7.96875 30.9896 6.25 26.8055 6.25 21.875C6.25 16.9444 7.96875 12.7604 11.4063 9.32291C14.8438 5.88541 19.0278 4.16666 23.9583 4.16666C26.4236 4.16666 28.724 4.62673 30.8594 5.54686C32.9948 6.467 34.8698 7.73436 36.4844 9.34895C38.099 10.9635 39.3663 12.8385 40.2865 14.9739C41.2066 17.1094 41.6667 19.4097 41.6667 21.875C41.6667 24.4792 41.2413 26.9792 40.3906 29.375C39.5399 31.7708 38.3767 33.993 36.901 36.0417C35.4253 38.0903 33.6719 39.9479 31.6406 41.6146C29.6094 43.2812 27.3958 44.6875 25 45.8333ZM29.1667 38.2292C31.6319 36.1458 33.6372 33.7066 35.1823 30.9114C36.7274 28.1163 37.5 25.1042 37.5 21.875C37.5 18.0903 36.1892 14.8871 33.5677 12.2656C30.9462 9.64409 27.7431 8.33332 23.9583 8.33332C20.1736 8.33332 16.9705 9.64409 14.349 12.2656C11.7274 14.8871 10.4167 18.0903 10.4167 21.875C10.4167 25.6597 11.7274 28.8628 14.349 31.4844C16.9705 34.1059 20.1736 35.4167 23.9583 35.4167H29.1667V38.2292ZM23.9062 33.2812C24.4965 33.2812 25 33.0729 25.4167 32.6562C25.8333 32.2396 26.0417 31.7361 26.0417 31.1458C26.0417 30.5555 25.8333 30.0521 25.4167 29.6354C25 29.2187 24.4965 29.0104 23.9062 29.0104C23.316 29.0104 22.8125 29.2187 22.3958 29.6354C21.9792 30.0521 21.7708 30.5555 21.7708 31.1458C21.7708 31.7361 21.9792 32.2396 22.3958 32.6562C22.8125 33.0729 23.316 33.2812 23.9062 33.2812ZM22.3958 26.6667H25.5208C25.5208 25.625 25.625 24.8958 25.8333 24.4792C26.0417 24.0625 26.7014 23.2986 27.8125 22.1875C28.4375 21.5625 28.9583 20.8854 29.375 20.1562C29.7917 19.4271 30 18.6458 30 17.8125C30 16.0417 29.401 14.7135 28.2031 13.8281C27.0052 12.9427 25.5903 12.5 23.9583 12.5C22.4306 12.5 21.1458 12.9253 20.1042 13.776C19.0625 14.6267 18.3333 15.6597 17.9167 16.875L20.8333 18.0208C21.0069 17.4305 21.3368 16.8489 21.8229 16.276C22.309 15.7031 23.0208 15.4167 23.9583 15.4167C24.8958 15.4167 25.599 15.6771 26.0677 16.1979C26.5365 16.7187 26.7708 17.2917 26.7708 17.9167C26.7708 18.5069 26.5972 19.0364 26.25 19.5052C25.9028 19.9739 25.4861 20.4514 25 20.9375C23.7847 21.9792 23.0469 22.8038 22.7865 23.4114C22.526 24.0191 22.3958 25.1042 22.3958 26.6667Z" fill="#003366"/>
</g>
</svg>
