<svg width="60" height="60" viewBox="0 0 60 60" fill="none" xmlns="http://www.w3.org/2000/svg">
<circle cx="30" cy="30" r="29.5" fill="white" stroke="#FCBA19"/>
<path d="M28 37.3333H32V34H35.3333V30H32V26.6667H28V30H24.6666V34H28V37.3333ZM23.3333 42C22.6 42 21.9722 41.7389 21.45 41.2167C20.9277 40.6944 20.6666 40.0667 20.6666 39.3333V24.6667C20.6666 23.9333 20.9277 23.3056 21.45 22.7833C21.9722 22.2611 22.6 22 23.3333 22H36.6666C37.4 22 38.0277 22.2611 38.55 22.7833C39.0722 23.3056 39.3333 23.9333 39.3333 24.6667V39.3333C39.3333 40.0667 39.0722 40.6944 38.55 41.2167C38.0277 41.7389 37.4 42 36.6666 42H23.3333ZM23.3333 39.3333H36.6666V24.6667H23.3333V39.3333ZM22 20.6667V18H38V20.6667H22Z" fill="#003366"/>
</svg>
