<svg xmlns="http://www.w3.org/2000/svg" width="181.255" height="78.688" viewBox="0 0 181.255 78.688">
  <g id="Group_86" data-name="Group 86" transform="translate(-52.744 -126.781)">
    <text id="Provider_Identity_Portal" data-name="Provider Identity Portal" transform="translate(53.396 200.469)" fill="#fff" font-size="15" font-family="Poppins-Medium, Poppins" font-weight="500"><tspan x="0" y="0">Provider Identity Portal</tspan></text>
    <path id="Path_2323" data-name="Path 2323" d="M0,0H7A67.637,67.637,0,0,1,3.333,25.3C-1.3,38.025-11.54,50.912-11.54,50.912l-11.1-.193A67.474,67.474,0,0,0-6.162,30.87C.827,18.142,0,0,0,0Z" transform="translate(148.412 137.06) rotate(27)" fill="#fff"/>
    <path id="Path_2324" data-name="Path 2324" d="M8532.264,2205.207s1.568,7.015,4.131,11.213a13.946,13.946,0,0,0,6.118,5.579s-4.939,2.479-10.457,5.84-11.615,7.6-11.615,7.6l6.705-12.272,5.734-3.607-3.349-3.665Z" transform="translate(-6450.49 -5685.387) rotate(27)" fill="#fff"/>
    <path id="Path_2325" data-name="Path 2325" d="M8542.513,2217.456l3.33,3.525a53.6,53.6,0,0,1,13.552-3.525,89.612,89.612,0,0,1,16.366,0,50.712,50.712,0,0,0-14.2-1.906A132.178,132.178,0,0,0,8542.513,2217.456Z" transform="translate(-6403.751 -5680.907) rotate(27)" fill="#fff"/>
    <path id="Path_2326" data-name="Path 2326" d="M8565.08,2203.377a27.93,27.93,0,0,0,2.591,7.829,15.6,15.6,0,0,0,4.728,5.012l-3.971-.726-3.771-4.59Z" transform="translate(-6403.751 -5680.907) rotate(27)" fill="#fff"/>
    <path id="Path_2327" data-name="Path 2327" d="M8559.624,2197.21h4.45l-3.952,19.162-5.225,1.5-3.125.591.024-1.89a18.12,18.12,0,0,0,6.2-7.6C8559.958,2204.133,8559.624,2197.21,8559.624,2197.21Z" transform="translate(-6403.751 -5680.907) rotate(27)" fill="#fff"/>
    <circle id="Ellipse_66" data-name="Ellipse 66" cx="2" cy="2" r="2" transform="translate(109.693 166.826) rotate(11)" fill="#e3a92b"/>
    <circle id="Ellipse_67" data-name="Ellipse 67" cx="2" cy="2" r="2" transform="translate(120.594 167.507) rotate(11)" fill="#e3a92b"/>
    <circle id="Ellipse_68" data-name="Ellipse 68" cx="2" cy="2" r="2" transform="translate(124.684 162.19) rotate(11)" fill="#e3a92b"/>
    <circle id="Ellipse_69" data-name="Ellipse 69" cx="2" cy="2" r="2" transform="translate(132.127 160.581) rotate(11)" fill="#e3a92b"/>
    <circle id="Ellipse_70" data-name="Ellipse 70" cx="2" cy="2" r="2" transform="translate(135.427 154.091) rotate(11)" fill="#e3a92b"/>
    <circle id="Ellipse_71" data-name="Ellipse 71" cx="2" cy="2" r="2" transform="translate(143.033 146.401) rotate(11)" fill="#e3a92b"/>
    <circle id="Ellipse_72" data-name="Ellipse 72" cx="2" cy="2" r="2" transform="translate(141.889 152.291) rotate(11)" fill="#e3a92b"/>
    <circle id="Ellipse_73" data-name="Ellipse 73" cx="2" cy="2" r="2" transform="translate(148.896 142.447) rotate(11)" fill="#e3a92b"/>
    <circle id="Ellipse_74" data-name="Ellipse 74" cx="2" cy="2" r="2" transform="translate(146.904 136.966) rotate(11)" fill="#e3a92b"/>
    <circle id="Ellipse_75" data-name="Ellipse 75" cx="1.5" cy="1.5" r="1.5" transform="translate(214.423 176.046) rotate(11)" fill="#e3a92b"/>
    <circle id="Ellipse_76" data-name="Ellipse 76" cx="1.5" cy="1.5" r="1.5" transform="translate(219.303 171.902) rotate(11)" fill="#e3a92b"/>
    <circle id="Ellipse_77" data-name="Ellipse 77" cx="1.5" cy="1.5" r="1.5" transform="translate(224.184 167.756) rotate(11)" fill="#e3a92b"/>
    <circle id="Ellipse_78" data-name="Ellipse 78" cx="1.5" cy="1.5" r="1.5" transform="translate(224.156 162.658) rotate(11)" fill="#e3a92b"/>
    <path id="Path_2392" data-name="Path 2392" d="M0,0H7A67.637,67.637,0,0,1,3.333,25.3C-1.3,38.025-11.54,50.912-11.54,50.912l-11.1-.193A67.474,67.474,0,0,0-6.162,30.87C.827,18.142,0,0,0,0Z" transform="matrix(0.848, 0.53, -0.53, 0.848, 199.126, 142.004)" fill="#fff"/>
    <path id="Path_2393" data-name="Path 2393" d="M8532.264,2205.207s1.568,7.015,4.131,11.213a13.946,13.946,0,0,0,6.118,5.579s-4.939,2.479-10.457,5.84-11.615,7.6-11.615,7.6l6.705-12.272,5.734-3.607-3.349-3.665Z" transform="matrix(0.848, 0.53, -0.53, 0.848, -5867.205, -6233.419)" fill="#fff"/>
    <circle id="Ellipse_94" data-name="Ellipse 94" cx="2" cy="2" r="2" transform="translate(157.634 168.801) rotate(16)" fill="#e3a92b"/>
    <circle id="Ellipse_95" data-name="Ellipse 95" cx="2" cy="2" r="2" transform="translate(168.76 169.91) rotate(16)" fill="#e3a92b"/>
    <circle id="Ellipse_96" data-name="Ellipse 96" cx="2" cy="2" r="2" transform="translate(173.297 164.97) rotate(16)" fill="#e3a92b"/>
    <circle id="Ellipse_97" data-name="Ellipse 97" cx="2" cy="2" r="2" transform="translate(180.854 164.016) rotate(16)" fill="#e3a92b"/>
    <circle id="Ellipse_98" data-name="Ellipse 98" cx="2" cy="2" r="2" transform="translate(184.706 157.838) rotate(16)" fill="#e3a92b"/>
    <circle id="Ellipse_99" data-name="Ellipse 99" cx="2" cy="2" r="2" transform="translate(192.953 150.84) rotate(16)" fill="#e3a92b"/>
    <circle id="Ellipse_100" data-name="Ellipse 100" cx="2" cy="2" r="2" transform="translate(191.3 156.608) rotate(16)" fill="#e3a92b"/>
    <circle id="Ellipse_101" data-name="Ellipse 101" cx="2" cy="2" r="2" transform="translate(199.138 147.413) rotate(16)" fill="#e3a92b"/>
    <circle id="Ellipse_102" data-name="Ellipse 102" cx="2" cy="2" r="2" transform="translate(197.633 141.779) rotate(16)" fill="#e3a92b"/>
    <path id="Path_2394" data-name="Path 2394" d="M8281.913,2517.051l-34.885,14.829-4.209-.687,30.076-16.452Z" transform="translate(-6670.878 -5138.404) rotate(21)" fill="#fff"/>
    <path id="Path_2395" data-name="Path 2395" d="M8477.363,2439.438l-48.756,9.834,62.5-1.7Z" transform="translate(-8375.863 -2266.599)" fill="#fff"/>
  </g>
</svg>
