<svg xmlns="http://www.w3.org/2000/svg" width="128.874" height="66.501" viewBox="0 0 128.874 66.501">
  <g id="Group_85" data-name="Group 85" transform="translate(-6548.253 -1206.531)">
    <path id="Path_2323" data-name="Path 2323" d="M0,0H7A67.637,67.637,0,0,1,3.333,25.3C-1.3,38.025-11.54,50.912-11.54,50.912l-11.1-.193A67.474,67.474,0,0,0-6.162,30.87C.827,18.142,0,0,0,0Z" transform="translate(6591.54 1216.81) rotate(27)" fill="#1a284f"/>
    <path id="Path_2324" data-name="Path 2324" d="M8532.264,2205.207s1.568,7.015,4.131,11.213a13.946,13.946,0,0,0,6.118,5.579s-4.939,2.479-10.457,5.84-11.615,7.6-11.615,7.6l6.705-12.272,5.734-3.607-3.349-3.665Z" transform="translate(-7.362 -4605.637) rotate(27)" fill="#1a284f"/>
    <path id="Path_2325" data-name="Path 2325" d="M8542.513,2217.456l3.33,3.525a53.6,53.6,0,0,1,13.552-3.525,89.612,89.612,0,0,1,16.366,0,50.712,50.712,0,0,0-14.2-1.906A132.178,132.178,0,0,0,8542.513,2217.456Z" transform="translate(39.377 -4601.157) rotate(27)" fill="#1a284f"/>
    <path id="Path_2326" data-name="Path 2326" d="M8565.08,2203.377a27.93,27.93,0,0,0,2.591,7.829,15.6,15.6,0,0,0,4.728,5.012l-3.971-.726-3.771-4.59Z" transform="translate(39.377 -4601.157) rotate(27)" fill="#1a284f"/>
    <path id="Path_2327" data-name="Path 2327" d="M8559.624,2197.21h4.45l-3.952,19.162-5.225,1.5-3.125.591.024-1.89a18.12,18.12,0,0,0,6.2-7.6C8559.958,2204.133,8559.624,2197.21,8559.624,2197.21Z" transform="translate(39.377 -4601.157) rotate(27)" fill="#1a284f"/>
    <circle id="Ellipse_66" data-name="Ellipse 66" cx="2" cy="2" r="2" transform="translate(6552.821 1246.576) rotate(11)" fill="#e3a92b"/>
    <circle id="Ellipse_67" data-name="Ellipse 67" cx="2" cy="2" r="2" transform="translate(6563.722 1247.257) rotate(11)" fill="#e3a92b"/>
    <circle id="Ellipse_68" data-name="Ellipse 68" cx="2" cy="2" r="2" transform="translate(6567.812 1241.94) rotate(11)" fill="#e3a92b"/>
    <circle id="Ellipse_69" data-name="Ellipse 69" cx="2" cy="2" r="2" transform="translate(6575.255 1240.331) rotate(11)" fill="#e3a92b"/>
    <circle id="Ellipse_70" data-name="Ellipse 70" cx="2" cy="2" r="2" transform="translate(6578.555 1233.841) rotate(11)" fill="#e3a92b"/>
    <circle id="Ellipse_71" data-name="Ellipse 71" cx="2" cy="2" r="2" transform="translate(6586.161 1226.151) rotate(11)" fill="#e3a92b"/>
    <circle id="Ellipse_72" data-name="Ellipse 72" cx="2" cy="2" r="2" transform="translate(6585.017 1232.041) rotate(11)" fill="#e3a92b"/>
    <circle id="Ellipse_73" data-name="Ellipse 73" cx="2" cy="2" r="2" transform="translate(6592.023 1222.197) rotate(11)" fill="#e3a92b"/>
    <circle id="Ellipse_74" data-name="Ellipse 74" cx="2" cy="2" r="2" transform="translate(6590.032 1216.716) rotate(11)" fill="#e3a92b"/>
    <circle id="Ellipse_75" data-name="Ellipse 75" cx="1.5" cy="1.5" r="1.5" transform="translate(6657.551 1255.796) rotate(11)" fill="#e3a92b"/>
    <circle id="Ellipse_76" data-name="Ellipse 76" cx="1.5" cy="1.5" r="1.5" transform="translate(6662.431 1251.652) rotate(11)" fill="#e3a92b"/>
    <circle id="Ellipse_77" data-name="Ellipse 77" cx="1.5" cy="1.5" r="1.5" transform="translate(6667.312 1247.506) rotate(11)" fill="#e3a92b"/>
    <circle id="Ellipse_78" data-name="Ellipse 78" cx="1.5" cy="1.5" r="1.5" transform="translate(6667.284 1242.408) rotate(11)" fill="#e3a92b"/>
    <path id="Path_2392" data-name="Path 2392" d="M0,0H7A67.637,67.637,0,0,1,3.333,25.3C-1.3,38.025-11.54,50.912-11.54,50.912l-11.1-.193A67.474,67.474,0,0,0-6.162,30.87C.827,18.142,0,0,0,0Z" transform="matrix(0.848, 0.53, -0.53, 0.848, 6642.254, 1221.754)" fill="#1a284f"/>
    <path id="Path_2393" data-name="Path 2393" d="M8532.264,2205.207s1.568,7.015,4.131,11.213a13.946,13.946,0,0,0,6.118,5.579s-4.939,2.479-10.457,5.84-11.615,7.6-11.615,7.6l6.705-12.272,5.734-3.607-3.349-3.665Z" transform="matrix(0.848, 0.53, -0.53, 0.848, 575.923, -5153.669)" fill="#1a284f"/>
    <circle id="Ellipse_94" data-name="Ellipse 94" cx="2" cy="2" r="2" transform="translate(6600.762 1248.551) rotate(16)" fill="#e3a92b"/>
    <circle id="Ellipse_95" data-name="Ellipse 95" cx="2" cy="2" r="2" transform="translate(6611.888 1249.66) rotate(16)" fill="#e3a92b"/>
    <circle id="Ellipse_96" data-name="Ellipse 96" cx="2" cy="2" r="2" transform="translate(6616.425 1244.72) rotate(16)" fill="#e3a92b"/>
    <circle id="Ellipse_97" data-name="Ellipse 97" cx="2" cy="2" r="2" transform="translate(6623.981 1243.766) rotate(16)" fill="#e3a92b"/>
    <circle id="Ellipse_98" data-name="Ellipse 98" cx="2" cy="2" r="2" transform="translate(6627.834 1237.588) rotate(16)" fill="#e3a92b"/>
    <circle id="Ellipse_99" data-name="Ellipse 99" cx="2" cy="2" r="2" transform="translate(6636.081 1230.59) rotate(16)" fill="#e3a92b"/>
    <circle id="Ellipse_100" data-name="Ellipse 100" cx="2" cy="2" r="2" transform="translate(6634.428 1236.358) rotate(16)" fill="#e3a92b"/>
    <circle id="Ellipse_101" data-name="Ellipse 101" cx="2" cy="2" r="2" transform="translate(6642.266 1227.163) rotate(16)" fill="#e3a92b"/>
    <circle id="Ellipse_102" data-name="Ellipse 102" cx="2" cy="2" r="2" transform="translate(6640.761 1221.529) rotate(16)" fill="#e3a92b"/>
    <path id="Path_2394" data-name="Path 2394" d="M8281.913,2517.051l-34.885,14.829-4.209-.687,30.076-16.452Z" transform="translate(-227.75 -4058.654) rotate(21)" fill="#1a284f"/>
  </g>
</svg>
