<svg xmlns="http://www.w3.org/2000/svg" width="181.255" height="77.573" viewBox="0 0 181.255 77.573">
  <g id="Group_86" data-name="Group 86" transform="translate(-52.744 -126.781)">
    <path id="Path_2396" data-name="Path 2396" d="M8.415-7.32a3.148,3.148,0,0,1-.375,1.5,2.81,2.81,0,0,1-1.2,1.148,4.454,4.454,0,0,1-2.115.443H2.835V0H1.125V-10.425h3.6a4.545,4.545,0,0,1,2.033.412A2.868,2.868,0,0,1,8-8.895,3.061,3.061,0,0,1,8.415-7.32Zm-3.69,1.7A2.085,2.085,0,0,0,6.18-6.068,1.618,1.618,0,0,0,6.66-7.32q0-1.71-1.935-1.71H2.835v3.4Zm7.035-1.44a2.686,2.686,0,0,1,1-.983A2.95,2.95,0,0,1,14.235-8.4v1.77H13.8a2.083,2.083,0,0,0-1.523.51,2.439,2.439,0,0,0-.517,1.77V0H10.05V-8.265h1.71ZM19.4.135A4.233,4.233,0,0,1,17.28-.4,3.825,3.825,0,0,1,15.8-1.9a4.525,4.525,0,0,1-.54-2.242,4.438,4.438,0,0,1,.555-2.235,3.833,3.833,0,0,1,1.515-1.5A4.4,4.4,0,0,1,19.47-8.4a4.4,4.4,0,0,1,2.145.525,3.834,3.834,0,0,1,1.515,1.5,4.438,4.438,0,0,1,.555,2.235,4.346,4.346,0,0,1-.57,2.235A3.947,3.947,0,0,1,21.563-.4,4.475,4.475,0,0,1,19.4.135Zm0-1.485a2.545,2.545,0,0,0,1.237-.315,2.4,2.4,0,0,0,.938-.945,3.038,3.038,0,0,0,.36-1.53,3.1,3.1,0,0,0-.345-1.523A2.329,2.329,0,0,0,20.67-6.6a2.5,2.5,0,0,0-1.23-.315,2.46,2.46,0,0,0-1.222.315,2.248,2.248,0,0,0-.892.938A3.217,3.217,0,0,0,17-4.14a2.9,2.9,0,0,0,.682,2.062A2.255,2.255,0,0,0,19.4-1.35Zm9.18-.18,2.34-6.735H32.73L29.58,0H27.54L24.4-8.265h1.83ZM34.89-9.36a1.059,1.059,0,0,1-.78-.315,1.059,1.059,0,0,1-.315-.78,1.059,1.059,0,0,1,.315-.78,1.059,1.059,0,0,1,.78-.315,1.042,1.042,0,0,1,.765.315,1.059,1.059,0,0,1,.315.78,1.059,1.059,0,0,1-.315.78A1.042,1.042,0,0,1,34.89-9.36Zm.84,1.1V0H34.02V-8.265Zm1.68,4.1a4.574,4.574,0,0,1,.517-2.2,3.793,3.793,0,0,1,1.41-1.493A3.805,3.805,0,0,1,41.325-8.4a3.876,3.876,0,0,1,1.6.352,3.269,3.269,0,0,1,1.252.937V-11.1H45.9V0H44.175V-1.245a3.2,3.2,0,0,1-1.162.99,3.607,3.607,0,0,1-1.7.39,3.7,3.7,0,0,1-1.972-.547,3.864,3.864,0,0,1-1.41-1.53A4.707,4.707,0,0,1,37.41-4.17Zm6.765.03a2.993,2.993,0,0,0-.353-1.485,2.474,2.474,0,0,0-.922-.96,2.413,2.413,0,0,0-1.23-.33,2.457,2.457,0,0,0-1.23.322,2.432,2.432,0,0,0-.923.945,2.95,2.95,0,0,0-.352,1.477,3.079,3.079,0,0,0,.352,1.5,2.487,2.487,0,0,0,.93.983,2.385,2.385,0,0,0,1.222.337,2.413,2.413,0,0,0,1.23-.33,2.462,2.462,0,0,0,.922-.967A3.036,3.036,0,0,0,44.175-4.14Zm11.55-.2a5.346,5.346,0,0,1-.06.84H49.35a2.293,2.293,0,0,0,.735,1.59,2.32,2.32,0,0,0,1.62.6,2,2,0,0,0,1.95-1.155H55.5A3.723,3.723,0,0,1,54.143-.593a3.983,3.983,0,0,1-2.437.728A4.221,4.221,0,0,1,49.583-.4a3.789,3.789,0,0,1-1.47-1.5A4.576,4.576,0,0,1,47.58-4.14,4.683,4.683,0,0,1,48.1-6.383a3.639,3.639,0,0,1,1.455-1.492A4.33,4.33,0,0,1,51.705-8.4a4.209,4.209,0,0,1,2.085.51,3.6,3.6,0,0,1,1.425,1.433A4.314,4.314,0,0,1,55.725-4.335Zm-1.785-.54a1.946,1.946,0,0,0-.675-1.515,2.413,2.413,0,0,0-1.635-.57,2.2,2.2,0,0,0-1.515.563,2.351,2.351,0,0,0-.75,1.523Zm5.175-2.19a2.686,2.686,0,0,1,1-.983A2.95,2.95,0,0,1,61.59-8.4v1.77h-.435a2.083,2.083,0,0,0-1.522.51,2.439,2.439,0,0,0-.518,1.77V0H57.4V-8.265h1.71Zm9.66-3.36V0h-1.71V-10.425Zm1.68,6.255a4.574,4.574,0,0,1,.518-2.2,3.793,3.793,0,0,1,1.41-1.493A3.805,3.805,0,0,1,74.37-8.4a3.876,3.876,0,0,1,1.6.352,3.269,3.269,0,0,1,1.253.937V-11.1h1.725V0H77.22V-1.245a3.2,3.2,0,0,1-1.162.99,3.607,3.607,0,0,1-1.7.39,3.7,3.7,0,0,1-1.973-.547,3.864,3.864,0,0,1-1.41-1.53A4.707,4.707,0,0,1,70.455-4.17Zm6.765.03a2.993,2.993,0,0,0-.353-1.485,2.474,2.474,0,0,0-.923-.96,2.413,2.413,0,0,0-1.23-.33,2.457,2.457,0,0,0-1.23.322,2.432,2.432,0,0,0-.923.945A2.95,2.95,0,0,0,72.21-4.17a3.079,3.079,0,0,0,.353,1.5,2.487,2.487,0,0,0,.93.983,2.385,2.385,0,0,0,1.223.337,2.413,2.413,0,0,0,1.23-.33,2.462,2.462,0,0,0,.923-.967A3.036,3.036,0,0,0,77.22-4.14Zm11.55-.2a5.346,5.346,0,0,1-.06.84H82.395a2.293,2.293,0,0,0,.735,1.59,2.32,2.32,0,0,0,1.62.6A2,2,0,0,0,86.7-2.46h1.845A3.723,3.723,0,0,1,87.188-.593,3.983,3.983,0,0,1,84.75.135,4.221,4.221,0,0,1,82.628-.4a3.789,3.789,0,0,1-1.47-1.5,4.576,4.576,0,0,1-.533-2.242,4.683,4.683,0,0,1,.518-2.243A3.639,3.639,0,0,1,82.6-7.875,4.33,4.33,0,0,1,84.75-8.4a4.209,4.209,0,0,1,2.085.51A3.6,3.6,0,0,1,88.26-6.457,4.314,4.314,0,0,1,88.77-4.335Zm-1.785-.54A1.946,1.946,0,0,0,86.31-6.39a2.413,2.413,0,0,0-1.635-.57A2.2,2.2,0,0,0,83.16-6.4a2.351,2.351,0,0,0-.75,1.523ZM94.62-8.4a3.706,3.706,0,0,1,1.748.4,2.88,2.88,0,0,1,1.207,1.2,3.947,3.947,0,0,1,.435,1.92V0H96.315V-4.62a2.4,2.4,0,0,0-.555-1.7,1.975,1.975,0,0,0-1.515-.593,2,2,0,0,0-1.522.593,2.379,2.379,0,0,0-.562,1.7V0H90.45V-8.265h1.71v.945a2.831,2.831,0,0,1,1.073-.795A3.429,3.429,0,0,1,94.62-8.4Zm7.56,1.53V-2.3a.878.878,0,0,0,.217.668,1.081,1.081,0,0,0,.743.2h1.05V0h-1.35a2.6,2.6,0,0,1-1.77-.54,2.225,2.225,0,0,1-.615-1.755V-6.87H99.48v-1.4h.975V-10.32h1.725v2.055h2.01v1.4Zm4.455-2.49a1.059,1.059,0,0,1-.78-.315,1.059,1.059,0,0,1-.315-.78,1.059,1.059,0,0,1,.315-.78,1.059,1.059,0,0,1,.78-.315,1.042,1.042,0,0,1,.765.315,1.059,1.059,0,0,1,.315.78,1.059,1.059,0,0,1-.315.78A1.042,1.042,0,0,1,106.635-9.36Zm.84,1.1V0h-1.71V-8.265Zm4.245,1.4V-2.3a.878.878,0,0,0,.217.668,1.081,1.081,0,0,0,.743.2h1.05V0h-1.35a2.6,2.6,0,0,1-1.77-.54,2.225,2.225,0,0,1-.615-1.755V-6.87h-.975v-1.4h.975V-10.32h1.725v2.055h2.01v1.4Zm11.025-1.4-5.07,12.15H115.9l1.68-4.02-3.255-8.13h1.9l2.325,6.3,2.415-6.3Zm12.48.945a3.148,3.148,0,0,1-.375,1.5,2.81,2.81,0,0,1-1.2,1.148,4.454,4.454,0,0,1-2.115.443h-1.89V0h-1.71V-10.425h3.6a4.545,4.545,0,0,1,2.033.412,2.868,2.868,0,0,1,1.245,1.118A3.061,3.061,0,0,1,135.225-7.32Zm-3.69,1.7a2.085,2.085,0,0,0,1.455-.443,1.618,1.618,0,0,0,.48-1.253q0-1.71-1.935-1.71h-1.89v3.4Zm8.91,5.76A4.233,4.233,0,0,1,138.33-.4a3.825,3.825,0,0,1-1.485-1.5,4.525,4.525,0,0,1-.54-2.242,4.438,4.438,0,0,1,.555-2.235,3.833,3.833,0,0,1,1.515-1.5A4.4,4.4,0,0,1,140.52-8.4a4.4,4.4,0,0,1,2.145.525,3.834,3.834,0,0,1,1.515,1.5,4.438,4.438,0,0,1,.555,2.235,4.346,4.346,0,0,1-.57,2.235A3.947,3.947,0,0,1,142.613-.4,4.475,4.475,0,0,1,140.445.135Zm0-1.485a2.545,2.545,0,0,0,1.237-.315,2.4,2.4,0,0,0,.938-.945,3.038,3.038,0,0,0,.36-1.53,3.1,3.1,0,0,0-.345-1.523,2.329,2.329,0,0,0-.915-.937,2.5,2.5,0,0,0-1.23-.315,2.46,2.46,0,0,0-1.223.315,2.248,2.248,0,0,0-.893.938,3.217,3.217,0,0,0-.33,1.523,2.9,2.9,0,0,0,.682,2.062A2.255,2.255,0,0,0,140.445-1.35Zm7.695-5.715a2.686,2.686,0,0,1,1-.983,2.95,2.95,0,0,1,1.477-.352v1.77h-.435a2.083,2.083,0,0,0-1.523.51,2.439,2.439,0,0,0-.517,1.77V0h-1.71V-8.265h1.71Zm6.045.195V-2.3a.878.878,0,0,0,.217.668,1.081,1.081,0,0,0,.743.2h1.05V0h-1.35a2.6,2.6,0,0,1-1.77-.54A2.226,2.226,0,0,1,152.46-2.3V-6.87h-.975v-1.4h.975V-10.32h1.725v2.055h2.01v1.4Zm3.015,2.7a4.574,4.574,0,0,1,.518-2.2,3.793,3.793,0,0,1,1.41-1.493A3.777,3.777,0,0,1,161.1-8.4a3.608,3.608,0,0,1,1.7.382,3.455,3.455,0,0,1,1.163.953v-1.2h1.725V0h-1.725V-1.23a3.4,3.4,0,0,1-1.185.975,3.652,3.652,0,0,1-1.71.39,3.634,3.634,0,0,1-1.95-.547,3.883,3.883,0,0,1-1.4-1.53A4.707,4.707,0,0,1,157.2-4.17Zm6.765.03a2.993,2.993,0,0,0-.353-1.485,2.474,2.474,0,0,0-.923-.96,2.413,2.413,0,0,0-1.23-.33,2.457,2.457,0,0,0-1.23.322,2.432,2.432,0,0,0-.923.945,2.95,2.95,0,0,0-.353,1.477,3.079,3.079,0,0,0,.353,1.5,2.487,2.487,0,0,0,.93.983,2.385,2.385,0,0,0,1.223.337,2.413,2.413,0,0,0,1.23-.33,2.462,2.462,0,0,0,.923-.967A3.036,3.036,0,0,0,163.965-4.14Zm5.685-6.96V0h-1.71V-11.1Z" transform="translate(53.396 200.469)" fill="#fff"/>
    <path id="Path_2323" data-name="Path 2323" d="M0,0H7A67.637,67.637,0,0,1,3.333,25.3C-1.3,38.025-11.54,50.912-11.54,50.912l-11.1-.193A67.474,67.474,0,0,0-6.162,30.87C.827,18.142,0,0,0,0Z" transform="translate(148.412 137.06) rotate(27)" fill="#fff"/>
    <path id="Path_2324" data-name="Path 2324" d="M8532.264,2205.207s1.568,7.015,4.131,11.213a13.946,13.946,0,0,0,6.118,5.579s-4.939,2.479-10.457,5.84-11.615,7.6-11.615,7.6l6.705-12.272,5.734-3.607-3.349-3.665Z" transform="translate(-6450.49 -5685.387) rotate(27)" fill="#fff"/>
    <path id="Path_2325" data-name="Path 2325" d="M8542.513,2217.456l3.33,3.525a53.6,53.6,0,0,1,13.552-3.525,89.612,89.612,0,0,1,16.366,0,50.712,50.712,0,0,0-14.2-1.906A132.178,132.178,0,0,0,8542.513,2217.456Z" transform="translate(-6403.751 -5680.907) rotate(27)" fill="#fff"/>
    <path id="Path_2326" data-name="Path 2326" d="M8565.08,2203.377a27.93,27.93,0,0,0,2.591,7.829,15.6,15.6,0,0,0,4.728,5.012l-3.971-.726-3.771-4.59Z" transform="translate(-6403.751 -5680.907) rotate(27)" fill="#fff"/>
    <path id="Path_2327" data-name="Path 2327" d="M8559.624,2197.21h4.45l-3.952,19.162-5.225,1.5-3.125.591.024-1.89a18.12,18.12,0,0,0,6.2-7.6C8559.958,2204.133,8559.624,2197.21,8559.624,2197.21Z" transform="translate(-6403.751 -5680.907) rotate(27)" fill="#fff"/>
    <circle id="Ellipse_66" data-name="Ellipse 66" cx="2" cy="2" r="2" transform="translate(109.693 166.826) rotate(11)" fill="#e3a92b"/>
    <circle id="Ellipse_67" data-name="Ellipse 67" cx="2" cy="2" r="2" transform="translate(120.594 167.507) rotate(11)" fill="#e3a92b"/>
    <circle id="Ellipse_68" data-name="Ellipse 68" cx="2" cy="2" r="2" transform="translate(124.684 162.19) rotate(11)" fill="#e3a92b"/>
    <circle id="Ellipse_69" data-name="Ellipse 69" cx="2" cy="2" r="2" transform="translate(132.127 160.581) rotate(11)" fill="#e3a92b"/>
    <circle id="Ellipse_70" data-name="Ellipse 70" cx="2" cy="2" r="2" transform="translate(135.427 154.091) rotate(11)" fill="#e3a92b"/>
    <circle id="Ellipse_71" data-name="Ellipse 71" cx="2" cy="2" r="2" transform="translate(143.033 146.401) rotate(11)" fill="#e3a92b"/>
    <circle id="Ellipse_72" data-name="Ellipse 72" cx="2" cy="2" r="2" transform="translate(141.889 152.291) rotate(11)" fill="#e3a92b"/>
    <circle id="Ellipse_73" data-name="Ellipse 73" cx="2" cy="2" r="2" transform="translate(148.896 142.447) rotate(11)" fill="#e3a92b"/>
    <circle id="Ellipse_74" data-name="Ellipse 74" cx="2" cy="2" r="2" transform="translate(146.904 136.966) rotate(11)" fill="#e3a92b"/>
    <circle id="Ellipse_75" data-name="Ellipse 75" cx="1.5" cy="1.5" r="1.5" transform="translate(214.423 176.046) rotate(11)" fill="#e3a92b"/>
    <circle id="Ellipse_76" data-name="Ellipse 76" cx="1.5" cy="1.5" r="1.5" transform="translate(219.303 171.902) rotate(11)" fill="#e3a92b"/>
    <circle id="Ellipse_77" data-name="Ellipse 77" cx="1.5" cy="1.5" r="1.5" transform="translate(224.184 167.756) rotate(11)" fill="#e3a92b"/>
    <circle id="Ellipse_78" data-name="Ellipse 78" cx="1.5" cy="1.5" r="1.5" transform="translate(224.156 162.658) rotate(11)" fill="#e3a92b"/>
    <path id="Path_2392" data-name="Path 2392" d="M0,0H7A67.637,67.637,0,0,1,3.333,25.3C-1.3,38.025-11.54,50.912-11.54,50.912l-11.1-.193A67.474,67.474,0,0,0-6.162,30.87C.827,18.142,0,0,0,0Z" transform="matrix(0.848, 0.53, -0.53, 0.848, 199.126, 142.004)" fill="#fff"/>
    <path id="Path_2393" data-name="Path 2393" d="M8532.264,2205.207s1.568,7.015,4.131,11.213a13.946,13.946,0,0,0,6.118,5.579s-4.939,2.479-10.457,5.84-11.615,7.6-11.615,7.6l6.705-12.272,5.734-3.607-3.349-3.665Z" transform="matrix(0.848, 0.53, -0.53, 0.848, -5867.205, -6233.419)" fill="#fff"/>
    <circle id="Ellipse_94" data-name="Ellipse 94" cx="2" cy="2" r="2" transform="translate(157.634 168.801) rotate(16)" fill="#e3a92b"/>
    <circle id="Ellipse_95" data-name="Ellipse 95" cx="2" cy="2" r="2" transform="translate(168.76 169.91) rotate(16)" fill="#e3a92b"/>
    <circle id="Ellipse_96" data-name="Ellipse 96" cx="2" cy="2" r="2" transform="translate(173.297 164.97) rotate(16)" fill="#e3a92b"/>
    <circle id="Ellipse_97" data-name="Ellipse 97" cx="2" cy="2" r="2" transform="translate(180.854 164.016) rotate(16)" fill="#e3a92b"/>
    <circle id="Ellipse_98" data-name="Ellipse 98" cx="2" cy="2" r="2" transform="translate(184.706 157.838) rotate(16)" fill="#e3a92b"/>
    <circle id="Ellipse_99" data-name="Ellipse 99" cx="2" cy="2" r="2" transform="translate(192.953 150.84) rotate(16)" fill="#e3a92b"/>
    <circle id="Ellipse_100" data-name="Ellipse 100" cx="2" cy="2" r="2" transform="translate(191.3 156.608) rotate(16)" fill="#e3a92b"/>
    <circle id="Ellipse_101" data-name="Ellipse 101" cx="2" cy="2" r="2" transform="translate(199.138 147.413) rotate(16)" fill="#e3a92b"/>
    <circle id="Ellipse_102" data-name="Ellipse 102" cx="2" cy="2" r="2" transform="translate(197.633 141.779) rotate(16)" fill="#e3a92b"/>
    <path id="Path_2394" data-name="Path 2394" d="M8281.913,2517.051l-34.885,14.829-4.209-.687,30.076-16.452Z" transform="translate(-6670.878 -5138.404) rotate(21)" fill="#fff"/>
    <path id="Path_2395" data-name="Path 2395" d="M8477.363,2439.438l-48.756,9.834,62.5-1.7Z" transform="translate(-8375.863 -2266.599)" fill="#fff"/>
  </g>
</svg>
