<svg xmlns="http://www.w3.org/2000/svg" width="160" height="160" viewBox="0 0 160 160">
  <g id="Group_59" data-name="Group 59" transform="translate(-5 -6)">
    <g id="Ellipse_25" data-name="Ellipse 25" transform="translate(5 6)" fill="#214073" stroke="#fff" stroke-width="1">
      <circle cx="80" cy="80" r="80" stroke="none"/>
      <circle cx="80" cy="80" r="79.5" fill="none"/>
    </g>
    <line id="Line_16" data-name="Line 16" y1="22" x2="127" transform="translate(29.5 119.5)" fill="none" stroke="#fff" stroke-linecap="round" stroke-width="1.5"/>
    <line id="Line_17" data-name="Line 17" x1="5" y2="112" transform="translate(66.5 22.5)" fill="none" stroke="#fff" stroke-linecap="round" stroke-width="2"/>
    <line id="Line_18" data-name="Line 18" x2="4" y2="106" transform="translate(94.5 22.5)" fill="none" stroke="#fff" stroke-linecap="round" stroke-width="2"/>
    <path id="Path_2195" data-name="Path 2195" d="M.587,116.937s6.668-5.7,15.687-17.536c7.132-9.358,15.312-22.435,23.092-35.74C56.616,34.16,69,0,69,0" transform="translate(25.5 22.5)" fill="none" stroke="#fff" stroke-width="1"/>
    <path id="Path_2196" data-name="Path 2196" d="M11.707,106.436s8-8.441,24.253-39.191S65,0,65,0" transform="translate(6.5 22.5)" fill="none" stroke="#fff" stroke-width="1"/>
    <path id="Path_2197" data-name="Path 2197" d="M0,0A111.776,111.776,0,0,0,15,17.282c7.921,7.6,19.614,16.372,30.851,23.523C70.6,56.555,69.507,52.68,69.507,52.68" transform="translate(94.5 24.5)" fill="none" stroke="#fff" stroke-width="1"/>
    <path id="Path_2198" data-name="Path 2198" d="M0,0S19.492,29.4,49.992,47.15,92.818,65.087,92.818,65.087" transform="translate(71.5 22.5)" fill="none" stroke="#fff" stroke-width="1"/>
    <path id="Path_2199" data-name="Path 2199" d="M0,0A24.279,24.279,0,0,1,7.113-4.754a21.443,21.443,0,0,1,7.96-1.583,19.53,19.53,0,0,1,7.613,1.583A27.945,27.945,0,0,1,30,0" transform="translate(67.5 116.5)" fill="none" stroke="#fff" stroke-width="1"/>
    <path id="Path_2200" data-name="Path 2200" d="M0,0A38.088,38.088,0,0,0,13.767,3.673c7,.25,15.173-2.927,15.173-2.927" transform="translate(68.5 103.5)" fill="none" stroke="#fff" stroke-width="1"/>
    <line id="Line_19" data-name="Line 19" y1="37" x2="27" transform="translate(68.5 66.5)" fill="none" stroke="#fff" stroke-width="1.5"/>
    <line id="Line_20" data-name="Line 20" x2="27" y2="38" transform="translate(69.5 66.5)" fill="none" stroke="#fff" stroke-width="1.5"/>
    <line id="Line_21" data-name="Line 21" y1="33" x2="25" transform="translate(69.5 31.5)" fill="none" stroke="#fff" stroke-width="1.5"/>
    <line id="Line_22" data-name="Line 22" x1="24" y1="37" transform="translate(71.5 29.5)" fill="none" stroke="#fff" stroke-width="1.5"/>
    <path id="Path_2201" data-name="Path 2201" d="M0,0A15.323,15.323,0,0,1,3.974-2.345a20.745,20.745,0,0,1,7.457-1.313,19.782,19.782,0,0,1,6.8,1.043A19.332,19.332,0,0,1,23,0" transform="translate(71.5 30.5)" fill="none" stroke="#fff" stroke-width="1"/>
    <path id="Path_2202" data-name="Path 2202" d="M0,0A15.637,15.637,0,0,1,5.853-3.042a19.715,19.715,0,0,1,4.862-.48,29.215,29.215,0,0,1,7.219.886A23.4,23.4,0,0,1,24,0" transform="translate(71.5 33.5)" fill="none" stroke="#fff" stroke-width="1"/>
    <g id="Path_2206" data-name="Path 2206" transform="translate(16.772 123)" fill="#fff">
      <path d="M1,.375.832.615,2,1l-.565.3L1,2,.832,1.3,0,1,.5.375Z" stroke="none"/>
      <path d="M 0.4980499744415283 0.3754842281341553 L 1 0.3754842281341553 L 0.8322800397872925 0.6149941682815552 L 2 1.000004172325134 L 1.434570074081421 1.298824191093445 L 1 2.000004053115845 L 0.8322800397872925 1.298824191093445 L 0 1.000004172325134 L 0.4980499744415283 0.3754842281341553 Z" stroke="none" fill="#e3a92b"/>
    </g>
    <g id="Path_2207" data-name="Path 2207" transform="translate(20.576 117.912) rotate(25)" fill="#fff">
      <path d="M0,.612.948.544.695,0l1.69.067L1.619.424l.766,1.643-1.219-.5-.781.5.338-.883Z" stroke="none"/>
      <path d="M 0.6947695016860962 -1.430511474609375e-06 L 2.385259389877319 0.06701850891113281 L 1.619219541549683 0.4242285490036011 L 2.385259389877319 2.067018508911133 L 1.166069507598877 1.571058511734009 L 0.3852595090866089 2.067018508911133 L 0.7228294610977173 1.183768510818481 L -4.76837158203125e-07 0.6116784811019897 L 0.9483894109725952 0.5438685417175293 L 0.6947695016860962 -1.430511474609375e-06 Z" stroke="none" fill="#e3a92b"/>
    </g>
    <g id="Path_2208" data-name="Path 2208" transform="translate(22.738 113.435)" fill="#fff">
      <path d="M1.381,0l.129,1.624,1.252-.177L1.238,2.1l.143.792L0,1.447a.807.807,0,0,0,.839-.166A3.452,3.452,0,0,0,1.381,0Z" stroke="none"/>
      <path d="M 1.3812255859375 1.430511474609375e-06 L 1.51071560382843 1.623661518096924 L 2.762455701828003 1.447021484375 L 1.237905621528625 2.101641416549683 L 1.3812255859375 2.894041538238525 L -4.529953002929688e-06 1.447021484375 C -4.529953002929688e-06 1.447021484375 0.4933459758758545 1.642381429672241 0.8386455774307251 1.280631542205811 C 1.183955550193787 0.9188715219497681 1.3812255859375 1.430511474609375e-06 1.3812255859375 1.430511474609375e-06 Z" stroke="none" fill="#e3a92b"/>
    </g>
    <g id="Path_2209" data-name="Path 2209" transform="translate(25.5 109.288)" fill="#fff">
      <path d="M1,0l.3.493L2.9.687,1.821,1,1,2l.3-.827L0,1,.868.493Z" stroke="none"/>
      <path d="M 0.9999963045120239 0 L 1.304936289787292 0.4931600093841553 L 2.896976232528687 0.6872600317001343 L 1.820556282997131 1 L 0.9999963045120239 2 L 1.304936289787292 1.172850012779236 L -3.576278686523438e-06 1 L 0.8676762580871582 0.4931600093841553 L 0.9999963045120239 0 Z" stroke="none" fill="#e3a92b"/>
    </g>
    <g id="Path_2210" data-name="Path 2210" transform="translate(29.5 103.427)" fill="#fff">
      <path d="M1,0,2,1H1.483v.69l-.4.347.074,1.182L0,1H.833Z" stroke="none"/>
      <path d="M 1 1.192092895507812e-06 L 2 1.000001192092896 L 1.483399987220764 1.000001192092896 L 1.483399987220764 1.690181255340576 L 1.085449934005737 2.037351131439209 L 1.159420013427734 3.219481229782104 L 0 1.000001192092896 L 0.8335000276565552 1.000001192092896 L 1 1.192092895507812e-06 Z" stroke="none" fill="#e3a92b"/>
    </g>
    <g id="Path_2211" data-name="Path 2211" transform="translate(32.277 97.127)" fill="#fff">
      <path d="M1,0l.587.264L2,0l.581.532L1.766.857l.677.654L1.766,2l-.553-.294L.777,2.25.447,1.706l.214-.464L0,1,1,.724Z" stroke="none"/>
      <path d="M 0.999995231628418 -4.053115844726562e-06 L 1.586665272712708 0.2644058465957642 L 1.999995231628418 -4.053115844726562e-06 L 2.580815315246582 0.5322258472442627 L 1.766355276107788 0.8574258089065552 L 2.443355321884155 1.511225938796997 L 1.766355276107788 1.999995827674866 L 1.212895274162292 1.705805778503418 L 0.7773452997207642 2.249515771865845 L 0.4465353488922119 1.705805778503418 L 0.6606452465057373 1.241695880889893 L -4.76837158203125e-06 0.9999958276748657 L 0.999995231628418 0.723875880241394 L 0.999995231628418 -4.053115844726562e-06 Z" stroke="none" fill="#e3a92b"/>
    </g>
    <g id="Path_2212" data-name="Path 2212" transform="translate(36.729 90.374)" fill="#fff">
      <path d="M1,0l.456,1.083L2,1l-.848.559L1,2,.47,1.242-1.059,1,.654.476Z" stroke="none"/>
      <path d="M 0.9999989867210388 0 L 1.456058979034424 1.083250045776367 L 1.999998927116394 1 L 1.152099013328552 1.559329986572266 L 0.9999989867210388 2 L 0.470458984375 1.241699934005737 L -1.059080958366394 1 L 0.6535689830780029 0.4758299589157104 L 0.9999989867210388 0 Z" stroke="none" fill="#e3a92b"/>
    </g>
    <g id="Path_2213" data-name="Path 2213" transform="translate(40.5 84.233)" fill="#fff">
      <path d="M1,0l.131.4h.475L1.333.881,2,1l-.394.639L.779,1.332,1,2,.262,1.546,0,1,.779.615Z" stroke="none"/>
      <path d="M 1 0 L 1.131099939346313 0.4033199548721313 L 1.606199979782104 0.4033199548721313 L 1.333009958267212 0.881100058555603 L 2 1 L 1.606199979782104 1.638920068740845 L 0.7790499925613403 1.331789970397949 L 1 2 L 0.2619600296020508 1.545650005340576 L 0 1 L 0.7790499925613403 0.6147500276565552 L 1 0 Z" stroke="none" fill="#e3a92b"/>
    </g>
    <g id="Path_2214" data-name="Path 2214" transform="translate(45.191 77.453) rotate(86)" fill="#fff">
      <path d="M1.478,0,1.132.638l.71-.175v.675l.636.553-.759-.2-.112.579-.475-.74H.554L.41.361,0,.794.181,0Z" stroke="none"/>
      <path d="M 0.1813936233520508 1.430511474609375e-06 L 1.478023648262024 1.430511474609375e-06 L 1.132083654403687 0.6384314298629761 L 1.841793656349182 0.4633814096450806 L 1.841793656349182 1.138431429862976 L 2.478023767471313 1.691161394119263 L 1.719233751296997 1.488041400909424 L 1.607423663139343 2.067381381988525 L 1.132083654403687 1.327641487121582 L 0.5544437170028687 1.327641487121582 L 0.4096636772155762 0.3610813617706299 L 3.576278686523438e-06 0.7937014102935791 L 0.1813936233520508 1.430511474609375e-06 Z" stroke="none" fill="#e3a92b"/>
    </g>
    <g id="Path_2215" data-name="Path 2215" transform="translate(46.709 71.383)" fill="#fff">
      <path d="M1,0l.212.564.65.11L1.5,1H.883l.717.387.7-.075L2.07,2H1l.212-.4L-.337.886.586.564Z" stroke="none"/>
      <path d="M 0.9999959468841553 0 L 1.211665987968445 0.5640900135040283 L 1.861575961112976 0.6737099885940552 L 1.499995946884155 1 L 0.883296012878418 1 L 1.599856019020081 1.386719942092896 L 2.295655965805054 1.311519980430603 L 2.070316076278687 2 L 0.9999959468841553 2 L 1.211665987968445 1.599609971046448 L -0.3374040126800537 0.8858599662780762 L 0.5859359502792358 0.5640900135040283 L 0.9999959468841553 0 Z" stroke="none" fill="#e3a92b"/>
    </g>
    <g id="Path_2216" data-name="Path 2216" transform="translate(51.469 62.974)" fill="#fff">
      <path d="M 0.5254911780357361 1.131249308586121 L 0.5063875913619995 1.00473415851593 L 0.6157573461532593 0.3624955117702484 L 0.7664700150489807 0.4421055912971497 L 0.8760600090026855 0.4999955892562866 L 1 0.4999955892562866 L 1.348924994468689 0.4999955892562866 L 1.459598541259766 0.9143635630607605 L 1.392707586288452 1.017511487007141 L 1.067319989204407 0.9732955694198608 L 0.9276700019836426 0.9543255567550659 L 0.7986699938774109 1.011075615882874 L 0.5254911780357361 1.131249308586121 Z" stroke="none"/>
      <path d="M 0.2387700080871582 -0.402104377746582 L 1 -4.410743713378906e-06 L 1.73291003704071 -4.410743713378906e-06 L 2 0.9999955892562866 L 1.639649987220764 1.555665612220764 L 1 1.468745589256287 L 0.1286599636077881 1.852055549621582 L 0 0.9999955892562866 L 0.2387700080871582 -0.402104377746582 Z" stroke="none" fill="#e3a92b"/>
    </g>
    <g id="Path_2217" data-name="Path 2217" transform="translate(54.904 54.29)" fill="#fff">
      <path d="M 0.3642542660236359 1.585501670837402 L 0.3347963392734528 1.576897621154785 L 0.2905646860599518 1.498953461647034 L 0.3682008683681488 1.363278150558472 L 0.5896039605140686 1.232594609260559 L 0.7992439270019531 1.108854532241821 L 0.8311439156532288 0.8675245642662048 L 0.8428744077682495 0.7787754535675049 L 0.9760739207267761 1.033614635467529 L 1.068663954734802 1.210764646530151 L 1.189135909080505 1.251834630966187 L 0.922853946685791 1.251834630966187 L 0.7284339666366577 1.251834630966187 L 0.5850839614868164 1.383174538612366 L 0.3642542660236359 1.585501670837402 Z" stroke="none"/>
      <path d="M 1.000003933906555 4.529953002929688e-06 L 1.419193983078003 0.8020045757293701 L 2.000003814697266 1.000004649162292 L 1.656493902206421 1.751834630966187 L 0.922853946685791 1.751834630966187 L 0.4943839311599731 2.144404649734497 L 3.933906555175781e-06 2.000004529953003 L -0.2849161624908447 1.497924566268921 L 3.933906555175781e-06 1.000004649162292 L 0.335453987121582 0.8020045757293701 L 0.410883903503418 0.2313245534896851 L 1.000003933906555 4.529953002929688e-06 Z" stroke="none" fill="#e3a92b"/>
    </g>
    <g id="Path_2218" data-name="Path 2218" transform="translate(57.883 47.392)" fill="#fff">
      <path d="M1,0,2,.2,1.51.636,2,1l.157.446H1.4L1,2,.73,1.446.49,1H0L.86.45Z" stroke="none"/>
      <path d="M 1.000001192092896 0 L 2.000001192092896 0.1995799541473389 L 1.51025128364563 0.6356199979782104 L 2.000001192092896 1 L 2.156981229782104 1.445800065994263 L 1.402591228485107 1.445800065994263 L 1.000001192092896 2 L 0.7297412157058716 1.445800065994263 L 0.4897412061691284 1 L 1.192092895507812e-06 1 L 0.8603512048721313 0.4495799541473389 L 1.000001192092896 0 Z" stroke="none" fill="#e3a92b"/>
    </g>
    <g id="Path_2219" data-name="Path 2219" transform="translate(60.624 39.609)" fill="#fff">
      <path d="M1.308.028,1.617.52l-.309.568L2,1l.081.573L1.8,1.9,1,2V1.573L.469,1.088,0,1,.813.52Z" stroke="none"/>
      <path d="M 1.307857275009155 0.02783596515655518 L 1.616697311401367 0.520266056060791 L 1.307857275009155 1.087886095046997 L 1.99999737739563 0.9999960660934448 L 2.08105731010437 1.572505950927734 L 1.804927349090576 1.900635957717896 L 0.9999973773956299 1.999996066093445 L 0.9999973773956299 1.572505950927734 L 0.4685072898864746 1.087886095046997 L -2.622604370117188e-06 0.9999960660934448 L 0.8134773969650269 0.520266056060791 L 1.307857275009155 0.02783596515655518 Z" stroke="none" fill="#e3a92b"/>
    </g>
    <g id="Path_2220" data-name="Path 2220" transform="translate(65.201 30)" fill="#fff">
      <path d="M1,0l.459,1H2l-.818.475L1,2,.336,1.689l-.354.179-.171-.393L-1.25,1H-.018L.336.516.88.848Z" stroke="none"/>
      <path d="M 1.000004172325134 0 L 1.458744168281555 1 L 2.000004291534424 1 L 1.182124137878418 1.474609971046448 L 1.000004172325134 2 L 0.3359341323375702 1.689209938049316 L -0.01782584190368652 1.867799997329712 L -0.1892058849334717 1.474609971046448 L -1.249515771865845 1 L -0.01782584190368652 1 L 0.3359341323375702 0.5156199932098389 L 0.8796341419219971 0.8483899831771851 L 1.000004172325134 0 Z" stroke="none" fill="#e3a92b"/>
    </g>
    <g id="Path_2221" data-name="Path 2221" transform="translate(67.774 22.5)" fill="#fff">
      <path d="M1,0l.368.582L2.281.362,2,1l-.133.609H1.48L1,2V1.47L.6,1.137,0,1,.324.257Z" stroke="none"/>
      <path d="M 1.000000834465027 0 L 1.367920875549316 0.5819100141525269 L 2.280760765075684 0.3624299764633179 L 2.000000953674316 1 L 1.867190837860107 1.60863995552063 L 1.480220794677734 1.60863995552063 L 1.000000834465027 2 L 1.000000834465027 1.469599962234497 L 0.603030800819397 1.137449979782104 L 9.5367431640625e-07 1 L 0.3242208957672119 0.2570799589157104 L 1.000000834465027 0 Z" stroke="none" fill="#e3a92b"/>
    </g>
    <g id="Path_2222" data-name="Path 2222" transform="translate(99.429 28.5)" fill="#fff">
      <path d="M 0.8847699761390686 1.415525436401367 L 0.8847699761390686 1.329910039901733 L 0.6326199769973755 1.18598997592926 L 0.5 1.110296249389648 L 0.5 1 L 0.5 0.8956992626190186 L 0.6188499927520752 0.9288899898529053 L 0.8176100254058838 0.774590015411377 L 1.151405215263367 0.5154500603675842 L 1.226469993591309 0.7097399830818176 L 1.245429992675781 0.7588099837303162 L 1.274189949035645 0.802869975566864 L 1.454320907592773 1.078793525695801 L 1.246790051460266 1.141819953918457 L 1.131090044975281 1.176959991455078 L 1.044229984283447 1.261080026626587 L 0.8847699761390686 1.415525436401367 Z" stroke="none"/>
      <path d="M 1 0 L 1.488280057907104 0 L 1.692870020866394 0.529539942741394 L 2 1 L 1.862789988517761 1.477289915084839 L 1.392090082168579 1.620239973068237 L 1 2 L 0.3847700357437134 1.897340059280396 L 0.3847700357437134 1.620239973068237 L 0 1.400629997253418 L 0 0.2369400262832642 L 0.5109900236129761 0.3796399831771851 L 1 0 Z" stroke="none" fill="#e3a92b"/>
    </g>
    <g id="Path_2223" data-name="Path 2223" transform="translate(103.522 33.5)" fill="#fff">
      <path d="M 1.317490935325623 1.467555522918701 L 1.251178026199341 1.310981869697571 L 1.190757989883423 1.168321847915649 L 1.060248017311096 1.084821820259094 L 1.049855589866638 1.078172206878662 L 1.204148054122925 1.009161829948425 L 1.499997973442078 0.8768318295478821 L 1.499997973442078 0.5527318120002747 L 1.499997973442078 0.2809629142284393 L 1.573733806610107 0.2988393008708954 L 2.084372043609619 1.051597237586975 L 1.798539519309998 1.421818852424622 L 1.317490935325623 1.467555522918701 Z" stroke="none"/>
      <path d="M 0.9999979734420776 -0.3547382354736328 L 1.879148006439209 -0.141598105430603 L 2.701417922973633 1.070551872253418 L 2.061768054962158 1.899051904678345 L 0.9999979734420776 2.000001907348633 L 0.790768027305603 1.505981802940369 L -1.9073486328125e-06 1.000001907348633 L 0.9999979734420776 0.5527318716049194 L 0.9999979734420776 -0.3547382354736328 Z" stroke="none" fill="#e3a92b"/>
    </g>
    <g id="Path_2224" data-name="Path 2224" transform="translate(109.636 38.5)" fill="#fff">
      <path d="M 0.2704869210720062 1.477555274963379 L 0.191260814666748 1.347773909568787 L 0.08338959515094757 1.298257112503052 L 0.1160708218812943 1.259573936462402 L 0.20698082447052 1.151963949203491 L 0.228350818157196 1.012733936309814 L 0.2945753931999207 0.5811529159545898 L 0.5011758208274841 0.5000039339065552 L 0.7471669316291809 0.5000039339065552 L 0.9845108389854431 0.8224939107894897 L 1.087790846824646 0.9628139138221741 L 1.255900859832764 1.008573889732361 L 1.419835805892944 1.053194046020508 L 1.404270768165588 1.086873888969421 L 1.341343760490417 1.223057627677917 L 1.218110799789429 1.201643943786621 L 1.169772148132324 1.249684810638428 L 0.928980827331543 0.8339539170265198 L 0.4691108167171478 1.283423900604248 L 0.2704869210720062 1.477555274963379 Z" stroke="none"/>
      <path d="M 0.4064908027648926 3.814697265625e-06 L 1.000000834465027 3.814697265625e-06 L 1.387210845947266 0.5261238813400269 L 2.121830940246582 0.7260739803314209 L 1.858150839805603 1.296633958816528 L 1.982910871505737 1.842043876647949 L 1.387210845947266 1.738523960113525 L 1.062190771102905 2.061553955078125 L 0.8186008334159851 1.64099395275116 L 0.170900821685791 2.274044036865234 L -0.1560091972351074 1.738523960113525 L -0.7231490612030029 1.478153944015503 L -0.265869140625 0.9368939399719238 L -0.1560091972351074 0.2209439277648926 L 0.4064908027648926 3.814697265625e-06 Z" stroke="none" fill="#e3a92b"/>
    </g>
    <g id="Path_2225" data-name="Path 2225" transform="translate(114.745 43.865)" fill="#fff">
      <path d="M 0.7646133899688721 1.558775782585144 L 0.809121310710907 1.465522885322571 L 0.6927012801170349 1.243772983551025 L 0.4548562169075012 0.7907351851463318 L 0.4024622738361359 0.6591540575027466 L 0.4584912359714508 0.6172909140586853 L 0.5571719408035278 0.5976969003677368 L 1.116451263427734 0.9904729127883911 L 1.433681130409241 1.213261127471924 L 1.393782138824463 1.377562880516052 L 0.8712112903594971 1.516872882843018 L 0.8201512694358826 1.530482888221741 L 0.7730813026428223 1.554462909698486 L 0.7646133899688721 1.558775782585144 Z" stroke="none"/>
      <path d="M 1.541991233825684 -0.4162571430206299 L 2.000001192092896 0.1489229202270508 L 2.000001192092896 0.5813028812408447 L 1.40381121635437 0.5813028812408447 L 2.000001192092896 1.000002861022949 L 1.809571266174316 1.784182906150818 L 1.000001311302185 2.000002861022949 L 0.489991307258606 2.25976300239563 L 1.311302185058594e-06 2.000002861022949 L 0.2500013113021851 1.476192951202393 L 1.311302185058594e-06 1.000002861022949 L -0.2038586139678955 0.4880329370498657 L 0.2500013113021851 0.1489229202270508 L 1.000001311302185 2.980232238769531e-06 L 1.083491325378418 -0.3444869518280029 L 1.541991233825684 -0.4162571430206299 Z" stroke="none" fill="#e3a92b"/>
    </g>
    <g id="Path_2226" data-name="Path 2226" transform="translate(120.87 48.39)" fill="#fff">
      <path d="M 0.7577559351921082 0.9376881718635559 L 0.6724330186843872 0.8365803956985474 L 0.5000030398368835 0.9048612713813782 L 0.5000030398368835 0.7903804183006287 L 0.3505130410194397 0.6434304118156433 L 0.08117824792861938 0.3786719739437103 L 0.161869689822197 0.1848210990428925 L 0.7123555541038513 -0.1616412401199341 L 0.9576348066329956 -0.03295790031552315 L 0.8955730199813843 0.3300504088401794 L 0.8508330583572388 0.5917704105377197 L 1.042593002319336 0.7754204273223877 L 1.076531887054443 0.8079225420951843 L 1.006783008575439 0.833670437335968 L 0.7612030506134033 0.9243304133415222 L 0.7577559351921082 0.9376881718635559 Z" stroke="none"/>
      <path d="M 0.6896930336952209 -0.7381596565246582 L 1.511723041534424 -0.306889533996582 L 1.388423085212708 0.4143103957176208 L 2.000003099441528 1.000000476837158 L 1.179933071136475 1.302730441093445 L 1.000003099441528 2.000000476837158 L 0.5222130417823792 1.433840394020081 L 3.099441528320312e-06 1.640620470046997 L 3.099441528320312e-06 1.000000476837158 L -0.5102570056915283 0.4984104037284851 L -0.2387669086456299 -0.1538095474243164 L 0.6896930336952209 -0.7381596565246582 Z" stroke="none" fill="#e3a92b"/>
    </g>
    <g id="Path_2227" data-name="Path 2227" transform="translate(126.996 52.372)" fill="#fff">
      <path d="M 0.3201148211956024 1.756573557853699 L 0.2820139825344086 1.637124061584473 L 0.2020639777183533 1.386444091796875 L -0.04982601478695869 1.310404062271118 L -0.1574694961309433 1.277906060218811 L -0.1588778048753738 1.270058989524841 L 0.04077398404479027 1.163684129714966 L 0.3056639730930328 1.022554039955139 L 0.3056639730930328 0.7224140763282776 L 0.3056639730930328 0.3576852083206177 L 0.4683284163475037 0.2134212106466293 L 0.6859639883041382 0.3890840709209442 L 0.7300939559936523 0.4246940910816193 L 0.7810739874839783 0.4495240747928619 L 1.323222994804382 0.7135590314865112 L 1.353274464607239 0.7804644107818604 L 1.16374397277832 0.8825640678405762 L 0.7972139716148376 1.080004096031189 L 0.8888633847236633 1.364153027534485 L 0.7938739657402039 1.375424027442932 L 0.5750739574432373 1.401384115219116 L 0.4465939700603485 1.580374121665955 L 0.3201148211956024 1.756573557853699 Z" stroke="none"/>
      <path d="M 0.4531239867210388 -0.4414060115814209 L 1.000004053115845 4.053115844726562e-06 L 1.705073952674866 0.3433840274810791 L 2.000004053115845 1.000004053115845 L 1.400874018669128 1.322754144668579 L 1.551273941993713 1.789064049720764 L 0.8527839779853821 1.871944069862366 L 0.5410139560699463 2.306274175643921 L -0.06249606609344482 2.202394008636475 L -0.1943360567092896 1.789064049720764 L -0.5954560041427612 1.667964100837708 L -0.7153360843658447 1.000004053115845 L -0.1943360567092896 0.7224141359329224 L -0.1943360567092896 0.1328140497207642 L 0.4531239867210388 -0.4414060115814209 Z" stroke="none" fill="#e3a92b"/>
    </g>
    <g id="Path_2228" data-name="Path 2228" transform="translate(132.119 57.351)" fill="#fff">
      <path d="M 1.085627675056458 1.003187775611877 L 0.8832197785377502 0.7361557483673096 L 1.234376788139343 0.6653518676757812 L 1.234376788139343 0.2561019062995911 L 1.234376788139343 0.1105478256940842 L 1.394929170608521 0.1343723684549332 L 1.436826705932617 0.3510318994522095 L 1.505996704101562 0.7087218761444092 L 1.603026747703552 0.7204616665840149 L 1.603026747703552 0.8944119215011597 L 1.422366738319397 0.8944119215011597 L 1.161496758460999 0.8944119215011597 L 1.085627675056458 1.003187775611877 Z" stroke="none"/>
      <path d="M 0.7343766689300537 -0.4691181182861328 L 1.818606734275818 -0.3082281351089478 L 1.927736759185791 0.2561018466949463 L 2.787356853485107 0.3601119518280029 L 2.103026866912842 0.9003918766975403 L 2.103026866912842 1.39441192150116 L 1.422366738319397 1.39441192150116 L 0.9999967813491821 2.000001907348633 L 0.8273967504501343 1.490231871604919 L 0.4558067321777344 1.000001907348633 L -3.337860107421875e-06 1.000001907348633 L 0.2185068130493164 0.3601119518280029 L 0.7343766689300537 0.2561018466949463 L 0.7343766689300537 -0.4691181182861328 Z" stroke="none" fill="#e3a92b"/>
    </g>
    <g id="Path_2229" data-name="Path 2229" transform="translate(139.683 61.864)" fill="#fff">
      <path d="M 0.5500363707542419 0.9688692092895508 L 0.2959209382534027 0.9688692092895508 L 0.3225599229335785 0.9282391667366028 L 0.5581099390983582 0.568969190120697 L 0.2384099215269089 0.2819991707801819 L 0.098711296916008 0.1566025018692017 L 0.234839916229248 0.03673917800188065 L 0.3452799320220947 -0.06050081923604012 L 0.385439932346344 -0.2020608186721802 L 0.4164648950099945 -0.3114234507083893 L 0.4579028487205505 -0.3055668473243713 L 0.7594699263572693 0.1760691851377487 L 0.8490999341011047 0.319219172000885 L 1.007169961929321 0.3786991834640503 L 1.266911029815674 0.4764318466186523 L 1.00944995880127 0.5718792080879211 L 0.9060699343681335 0.6101991534233093 L 0.8283998966217041 0.6884492039680481 L 0.5500363707542419 0.9688692092895508 Z" stroke="none"/>
      <path d="M 0.05449986457824707 -0.8675508499145508 L 0.7582199573516846 -0.7680908441543579 L 1.183249950408936 -0.08927083015441895 L 1.827149868011475 0.1530091762542725 L 1.827149868011475 0.8019891977310181 L 1.183249950408936 1.040699243545532 L 0.7582199573516846 1.468869209289551 L 0.05449986457824707 1.468869209289551 L -0.34906005859375 1.040699243545532 L -0.09558010101318359 0.6540891528129578 L -0.6538100242614746 0.1530091762542725 L -0.09558010101318359 -0.3385208249092102 L 0.05449986457824707 -0.8675508499145508 Z" stroke="none" fill="#e3a92b"/>
    </g>
    <g id="Path_2230" data-name="Path 2230" transform="translate(145.395 65.315)" fill="#fff">
      <path d="M 1.260385155677795 1.654062867164612 L 1.140545248985291 1.34838330745697 L 1.070795178413391 1.170453310012817 L 0.9001451730728149 1.084413290023804 L 0.7921894192695618 1.029984831809998 L 0.9613952040672302 0.9552832841873169 L 1.041185140609741 0.7879133224487305 L 1.349795460700989 0.1405578851699829 L 1.398925185203552 0.128322035074234 L 1.398925185203552 0.3452132940292358 L 1.398925185203552 0.6129533052444458 L 1.482975602149963 0.6689303517341614 L 1.129445195198059 0.7125732898712158 L 1.297235250473022 1.278583288192749 L 1.388308644294739 1.585799694061279 L 1.260385155677795 1.654062867164612 Z" stroke="none"/>
      <path d="M 1.898925185203552 -0.5114767551422119 L 1.898925185203552 0.3452132940292358 L 2.882075309753418 1.000003337860107 L 1.776615142822266 1.136473298072815 L 1.98364520072937 1.834843277931213 L 0.999995231628418 2.359743356704712 L 0.6750452518463135 1.530883312225342 L -0.377924919128418 1.000003337860107 L 0.5898451805114746 0.5727533102035522 L 0.999995231628418 -0.2875967025756836 L 1.898925185203552 -0.5114767551422119 Z" stroke="none" fill="#e3a92b"/>
    </g>
    <g id="Path_2231" data-name="Path 2231" transform="translate(153.041 69.881)" fill="#fff">
      <path d="M 0.2862709164619446 0.8434150815010071 L 0.2547674477100372 0.8381563425064087 L 0.2547674477100372 0.7338150143623352 L 0.2547674477100372 0.3028550148010254 L -0.1714825332164764 0.2392850071191788 L -0.1763775944709778 0.2385549694299698 L -0.08462277799844742 0.04893234372138977 L 0.3857128620147705 0.3403304517269135 L 0.327097475528717 0.6368650197982788 L 0.2862709164619446 0.8434150815010071 Z" stroke="none"/>
      <path d="M -0.07747256755828857 -0.697754979133606 L 0.6826674342155457 -0.5383750200271606 L 0.3212474584579468 0.2322350144386292 L 0.932777464389801 -0.5383750200271606 L 1.649897456169128 -0.3592849969863892 L 1.517607450485229 0.632794976234436 L 0.8176074624061584 0.7338150143623352 L 0.6826674342155457 1.416504979133606 L -0.2452325224876404 1.261615037918091 L -0.2452325224876404 0.7338150143623352 L -0.9226025342941284 0.632794976234436 L -0.4774125814437866 -0.2872450351715088 L -0.07747256755828857 -0.697754979133606 Z" stroke="none" fill="#e3a92b"/>
    </g>
    <g id="Path_2232" data-name="Path 2232" transform="translate(161.341 72.284)" fill="#fff">
      <path d="M 0.3361718654632568 1.54710590839386 L 0.2153194546699524 1.425452470779419 L 0.000859453110024333 1.209562420845032 L -0.2894205451011658 1.300872445106506 L -0.4435723125934601 1.349358677864075 L -0.4569220840930939 1.187701225280762 L 0.09666809439659119 0.6265836358070374 L 0.6195524334907532 0.5559433102607727 L 0.6955294609069824 0.8715424537658691 L 0.7297801375389099 1.013806462287903 L 0.6937194466590881 1.029712438583374 L 0.504039466381073 1.113372445106506 L 0.429209440946579 1.306712508201599 L 0.3361718654632568 1.54710590839386 Z" stroke="none"/>
      <path d="M 0.999999463558197 2.384185791015625e-06 L 1.181639432907104 0.7545124292373657 L 1.999999523162842 1.000002503395081 L 0.8955094814300537 1.487182378768921 L 0.5244094729423523 2.446042537689209 L -0.1394006013870239 1.777832508087158 L -0.8903805017471313 2.014042377471924 L -0.9741204977035522 1.000002503395081 L -0.1394006013870239 0.1539325714111328 L 0.999999463558197 2.384185791015625e-06 Z" stroke="none" fill="#e3a92b"/>
    </g>
    <g id="Path_2237" data-name="Path 2237" transform="translate(99.43 51.375)" fill="#fff">
      <path d="M 0.6470120549201965 1.30431592464447 L 0.551334023475647 1.263239502906799 L 0.5044636726379395 0.9847069382667542 L 0.5530465245246887 0.5289353132247925 L 1.028746843338013 0.5289353132247925 L 1.499753594398499 0.7637853026390076 L 1.445389151573181 0.916225254535675 L 1.251534461975098 0.8745653033256531 L 0.769724428653717 0.7710253596305847 L 0.6592144370079041 1.251285314559937 L 0.6470120549201965 1.30431592464447 Z" stroke="none"/>
      <path d="M 0.1035144329071045 0.02893531322479248 L 1.146484375 0.02893531322479248 L 2.119624376296997 0.514155387878418 L 1.769044399261475 1.497195243835449 L 1.146484375 1.363405346870422 L 1.000004410743713 1.999995350837708 L 0.1035144329071045 1.615115404129028 L 4.529953002929688e-06 0.9999953508377075 L 0.1035144329071045 0.02893531322479248 Z" stroke="none" fill="#e3a92b"/>
    </g>
    <g id="Path_2238" data-name="Path 2238" transform="translate(104.546 55.357)" fill="#fff">
      <path d="M 1.85331666469574 1.906315088272095 L 1.385415434837341 1.64311957359314 L 1.596459627151489 1.61025857925415 L 2.07763671875 1.535336136817932 L 2.217190027236938 1.688138127326965 L 1.85331666469574 1.906315088272095 Z M 0.8778923749923706 1.460070610046387 L 0.5645986795425415 1.389646768569946 L 0.5157158970832825 1.066357254981995 L 0.6930524706840515 0.6538197994232178 L 0.9249685406684875 0.5645923018455505 L 1.127066254615784 0.71241295337677 L 1.045179605484009 0.9581185579299927 L 0.8778923749923706 1.460070610046387 Z" stroke="none"/>
      <path d="M 0.9999996423721313 -1.430511474609375e-06 L 1.71679961681366 0.524288535118103 L 1.519529700279236 1.116208553314209 L 2.265869617462158 0.9999985694885254 L 2.998779535293579 1.802488565444946 L 1.861329674720764 2.484498500823975 L 0.9999996423721313 1.999998569488525 L 0.1213395595550537 1.802488565444946 L -2.384185791015625e-07 0.9999985694885254 L 0.316889762878418 0.2628185749053955 L 0.9999996423721313 -1.430511474609375e-06 Z" stroke="none" fill="#e3a92b"/>
    </g>
    <g id="Path_2239" data-name="Path 2239" transform="translate(110.66 60.337)" fill="#fff">
      <path d="M 1.240423083305359 1.464562058448792 L 1.089147448539734 1.242262959480286 L 0.9783474206924438 1.079442977905273 L 0.7862673997879028 1.035923004150391 L 0.5104016661643982 0.9734150171279907 L 0.483087420463562 0.8710729479789734 L 0.4551674127578735 0.7664729952812195 L 0.3864874243736267 0.6827829480171204 L 0.2253555506467819 0.4864659905433655 L 0.4686234891414642 0.3394605815410614 L 0.6835269927978516 0.4172190427780151 L 0.6595073938369751 0.428102970123291 L 1.204797387123108 0.9396229982376099 L 1.52766478061676 1.242489218711853 L 1.539475917816162 1.331993937492371 L 1.421332478523254 1.441055774688721 L 1.240423083305359 1.464562058448792 Z" stroke="none"/>
      <path d="M 0.4143074750900269 -0.2119169235229492 L 0.9999974370002747 2.980232238769531e-06 L 1.846187472343445 2.980232238769531e-06 L 1.99999737739563 0.3696329593658447 L 1.546877384185791 0.5749529600143433 L 1.99999737739563 1.000002980232239 L 2.069087505340576 1.523562908172607 L 1.64355742931366 1.916383028030396 L 0.9999974370002747 2.000002861022949 L 0.6757774353027344 1.523562908172607 L 0.1052274703979492 1.394282937049866 L -2.622604370117188e-06 1.000002980232239 L -0.3488726615905762 0.5749529600143433 L -0.2060525417327881 0.1629629135131836 L 0.4143074750900269 -0.2119169235229492 Z" stroke="none" fill="#e3a92b"/>
    </g>
    <g id="Path_2240" data-name="Path 2240" transform="translate(116.791 64.32)" fill="#fff">
      <path d="M 1.526527166366577 1.212651133537292 L 0.9349527955055237 1.212651133537292 L 0.348860889673233 0.6418211460113525 L 0.2979882955551147 0.5922728180885315 L 0.4324209094047546 0.5416111350059509 L 0.5766608715057373 0.4872511327266693 L 0.6607836484909058 0.3674813807010651 L 0.668860912322998 0.3746211230754852 L 1.010620951652527 0.6767211556434631 L 1.049961447715759 0.6396833062171936 L 1.526527166366577 1.212651133537292 Z" stroke="none"/>
      <path d="M 0.5730009078979492 -0.3774387836456299 L 1.000000953674316 1.192092895507812e-06 L 1.302250862121582 -0.2845487594604492 L 1.840090870857239 1.192092895507812e-06 L 2.000000953674316 0.4017311334609985 L 2.527101039886475 0.5593311786651611 L 2.339110851287842 1.000001192092896 L 2.000000953674316 1.000001192092896 L 2.339110851287842 1.407711148262024 L 2.000000953674316 1.712651133537292 L 2.063960790634155 2.265381097793579 L 1.663330912590027 2.117671012878418 L 1.209470987319946 2.33276104927063 L 0.7001909017562866 1.961061120033264 L 0.8745108842849731 1.712651133537292 L 0.09448087215423584 1.712651133537292 L -0.3598589897155762 1.102051138877869 L 9.5367431640625e-07 1.000001192092896 L -0.6142590045928955 0.4017311334609985 L 0.2561008930206299 0.0737311840057373 L 0.5730009078979492 -0.3774387836456299 Z" stroke="none" fill="#e3a92b"/>
    </g>
    <g id="Path_2241" data-name="Path 2241" transform="translate(124.453 68.902)" fill="#fff">
      <path d="M.671-.114h.348L1.213.2l.346.225L1.5.642v.6L1.019.958.671,1.4H.27l-.3-.362L-.455.9l.3-.254H-.724v-.3L-.889-.047l.305-.067L-.091-.42.444-.469Z" stroke="none"/>
      <path d="M 0.4438888728618622 -0.4686300754547119 L 0.6706588864326477 -0.1140800714492798 L 1.018778800964355 -0.1140800714492798 L 1.212898850440979 0.1981699466705322 L 1.558588862419128 0.4235999584197998 L 1.49630880355835 0.6424799561500549 L 1.49630880355835 1.244539976119995 L 1.018778800964355 0.9579599499702454 L 0.6706588864326477 1.399049997329712 L 0.2703388631343842 1.399049997329712 L -0.03223115205764771 1.03655993938446 L -0.4545211791992188 0.8969199657440186 L -0.1549811363220215 0.6424799561500549 L -0.7242311239242554 0.6424799561500549 L -0.7242311239242554 0.3451999425888062 L -0.8889111280441284 -0.04675006866455078 L -0.5835311412811279 -0.1140800714492798 L -0.09129112958908081 -0.4200500249862671 L 0.4438888728618622 -0.4686300754547119 Z" stroke="none" fill="#e3a92b"/>
    </g>
    <g id="Path_2242" data-name="Path 2242" transform="translate(130.619 71.903)" fill="#fff">
      <path d="M 0.7204143404960632 0.8953261375427246 L 0.6619024276733398 0.6763796806335449 L 0.5042584538459778 0.6351965069770813 L 0.5611523985862732 0.5325996875762939 L 0.3953031897544861 0.3812796175479889 L 0.488023966550827 0.282022625207901 L 0.5115324258804321 0.2870797216892242 L 0.6570100784301758 0.1494648605585098 L 0.6582024097442627 0.1510297060012817 L 0.9058324098587036 0.1510297060012817 L 1.008921027183533 0.1510297060012817 L 1.024892449378967 0.275359719991684 L 1.088081240653992 0.3539344072341919 L 1.069402456283569 0.3864197134971619 L 0.9250873327255249 0.6373903155326843 L 0.7846423983573914 0.6735796928405762 L 0.7204143404960632 0.8953261375427246 Z" stroke="none"/>
      <path d="M 0.7175624370574951 -0.5960702896118164 L 0.9058324098587036 -0.3489702939987183 L 1.448792457580566 -0.3489702939987183 L 1.502852439880371 0.07183969020843506 L 1.691892385482788 0.3068796992301941 L 1.502852439880371 0.6356496810913086 L 1.691892385482788 0.9561297297477722 L 1.185562372207642 1.086599707603455 L 1.071482419967651 1.480469703674316 L 0.7175624370574951 1.40736973285675 L 0.3592424392700195 1.480469703674316 L 0.2539824247360229 1.086599707603455 L -0.2454476356506348 0.9561297297477722 L -0.06772756576538086 0.6356496810913086 L -0.3154275417327881 0.4096496999263763 L 0.0001424551010131836 0.07183969020843506 L -0.06772756576538086 -0.3489702939987183 L 0.3592424392700195 -0.2571202516555786 L 0.7175624370574951 -0.5960702896118164 Z" stroke="none" fill="#e3a92b"/>
    </g>
    <g id="Path_2243" data-name="Path 2243" transform="translate(137.214 75.272)" fill="#fff">
      <path d="M 1.343118906021118 1.421671986579895 L 1.164739966392517 0.8508594632148743 L 1.055099964141846 0.4999994933605194 L 0.6875 0.4999994933605194 L 0.5781411528587341 0.4999994933605194 L 0.5860328674316406 0.4458457827568054 L 0.994219183921814 0.2278712540864944 L 1.384238243103027 0.4464189410209656 L 1.490358114242554 0.9976003170013428 L 1.407174229621887 1.408889412879944 L 1.343118906021118 1.421671986579895 Z" stroke="none"/>
      <path d="M 1 -0.3420405387878418 L 1.831300020217896 0.1237795352935791 L 2 0.999999463558197 L 1.831300020217896 1.834109544754028 L 1 1.999999523162842 L 0.6875 0.999999463558197 L 0 0.999999463558197 L 0.1276899576187134 0.1237795352935791 L 1 -0.3420405387878418 Z" stroke="none" fill="#e3a92b"/>
    </g>
    <g id="Path_2244" data-name="Path 2244" transform="matrix(-0.883, -0.469, 0.469, -0.883, 146.599, 80.377)" fill="#fff">
      <path d="M 1.335906744003296 1.472440361976624 L 1.086390733718872 1.376287698745728 L 1.332650542259216 0.9567099809646606 L 1.600703597068787 0.5 L 1.841877698898315 0.5 L 1.82265043258667 0.6989399790763855 L 1.788300514221191 1.054329991340637 L 2.045524597167969 1.171331286430359 L 1.931357622146606 1.297077059745789 L 1.335906744003296 1.472440361976624 Z" stroke="none"/>
      <path d="M 1.314410448074341 0 L 2.39253044128418 0 L 2.320330619812012 0.7470400333404541 L 2.876420497894287 1 L 2.207230567932129 1.737060070037842 L 1.314410448074341 2 L 0.5313704013824463 1.69825005531311 L 0.07481050491333008 1.333100080490112 L 4.76837158203125e-07 0.6988799571990967 L 0.485370397567749 0.440809965133667 L 0.9014405012130737 0.7036199569702148 L 1.314410448074341 0 Z" stroke="none" fill="#e3a92b"/>
    </g>
    <g id="Path_2245" data-name="Path 2245" transform="translate(152.534 81.247)" fill="#fff">
      <path d="M 1.086436033248901 1.1159348487854 L 0.4194351136684418 0.5858390331268311 L 0.4194351136684418 0.3224255442619324 L 0.9745357632637024 0.187785804271698 L 1.592211842536926 0.4032821953296661 L 1.437520980834961 0.9795533418655396 L 1.086436033248901 1.1159348487854 Z" stroke="none"/>
      <path d="M 0.9999951124191284 -0.3328863382339478 L 2.195555210113525 0.08422362804412842 L 1.854735136032104 1.353883624076843 L 0.9999951124191284 1.685913681983948 L -0.08056497573852539 0.827143669128418 L -0.08056497573852539 -0.07079637050628662 L 0.9999951124191284 -0.3328863382339478 Z" stroke="none" fill="#e3a92b"/>
    </g>
    <g id="Path_2246" data-name="Path 2246" transform="translate(161.341 83.237)" fill="#fff">
      <path d="M 1.342534303665161 1.53436017036438 L 1.160291314125061 1.514506936073303 L 0.7929936051368713 1.299634337425232 L 0.676033616065979 1.231204390525818 L 0.5405235886573792 1.231204390525818 L 0.4642704129219055 1.231204390525818 L 0.6960836052894592 0.9727044105529785 L 0.3449635803699493 0.6380643844604492 L 0.2564409673213959 0.5536950826644897 L 0.5070692300796509 0.3947777450084686 L 0.7035694122314453 0.4425218999385834 L 0.9496135711669922 0.7808743715286255 L 1.187753558158875 1.108354449272156 L 1.478839516639709 0.9785963296890259 L 1.484490156173706 1.000934243202209 L 1.356331825256348 1.515453696250916 L 1.342534303665161 1.53436017036438 Z" stroke="none"/>
      <path d="M 0.418703556060791 -0.1412355899810791 L 1.000003576278687 4.410743713378906e-06 L 1.354003548622131 0.4868143796920776 L 1.817873597145081 0.2800244092941284 L 2.000003576278687 1.000004410743713 L 1.817873597145081 1.731204390525818 L 1.575923562049866 2.062744379043579 L 1.000003576278687 2.000004291534424 L 0.5405236482620239 1.731204390525818 L 3.576278686523438e-06 1.731204390525818 L -0.2946764230728149 1.328614473342896 L 3.576278686523438e-06 1.000004410743713 L -0.4111363887786865 0.6081544160842896 L -0.1193864345550537 0.1999543905258179 L 0.418703556060791 -0.1412355899810791 Z" stroke="none" fill="#e3a92b"/>
    </g>
    <line id="Line_23" data-name="Line 23" y2="7" transform="translate(72.5 105.5)" fill="none" stroke="#fff" stroke-width="1"/>
    <line id="Line_24" data-name="Line 24" y2="5" transform="translate(76.5 106.5)" fill="none" stroke="#fff" stroke-width="1"/>
    <line id="Line_25" data-name="Line 25" y2="4" transform="translate(79.5 106.5)" fill="none" stroke="#fff" stroke-width="1"/>
    <line id="Line_26" data-name="Line 26" y2="3" transform="translate(82.5 107.5)" fill="none" stroke="#fff" stroke-width="1"/>
    <line id="Line_27" data-name="Line 27" y2="3" transform="translate(85.5 107.5)" fill="none" stroke="#fff" stroke-width="1"/>
    <line id="Line_28" data-name="Line 28" y2="5" transform="translate(88.5 106.5)" fill="none" stroke="#fff" stroke-width="1"/>
    <line id="Line_29" data-name="Line 29" y2="8" transform="translate(93.5 105.5)" fill="none" stroke="#fff" stroke-width="1"/>
    <line id="Line_30" data-name="Line 30" y2="4" transform="translate(80.5 26.5)" fill="none" stroke="#fff" stroke-width="1"/>
    <line id="Line_31" data-name="Line 31" y2="3" transform="translate(82.5 26.5)" fill="none" stroke="#fff" stroke-width="1"/>
    <line id="Line_32" data-name="Line 32" y2="4" transform="translate(85.5 26.5)" fill="none" stroke="#fff" stroke-width="1"/>
    <line id="Line_33" data-name="Line 33" y2="3" transform="translate(87.5 27.5)" fill="none" stroke="#fff" stroke-width="1"/>
    <line id="Line_34" data-name="Line 34" y2="3" transform="translate(89.5 27.5)" fill="none" stroke="#fff" stroke-width="1"/>
    <line id="Line_35" data-name="Line 35" y2="3" transform="translate(77.5 27.5)" fill="none" stroke="#fff" stroke-width="1"/>
    <line id="Line_36" data-name="Line 36" y2="3" transform="translate(74.5 28.5)" fill="none" stroke="#fff" stroke-width="1"/>
    <g id="Path_2249" data-name="Path 2249" transform="translate(77.985 33.5)" fill="#fff">
      <path d="M 0.8847619295120239 1.415530562400818 L 0.8847619295120239 1.329905390739441 L 0.6326119303703308 1.185985326766968 L 0.6256725788116455 1.182024717330933 L 0.6831019520759583 1.038195371627808 L 0.7159241437911987 0.9559991359710693 L 1.193581938743591 1.089395403862 L 1.039997816085815 0.4431438148021698 L 1.326573610305786 0.4824820458889008 L 1.582720041275024 0.6258624196052551 L 1.517091989517212 0.8703853487968445 L 1.500001907348633 0.9340653419494629 L 1.500001907348633 0.9999953508377075 L 1.500001907348633 1.119933843612671 L 1.28918194770813 1.023835420608521 L 1.04423201084137 1.261075377464294 L 0.8847619295120239 1.415530562400818 Z" stroke="none"/>
      <path d="M 0.3847619295120239 -0.1514846086502075 L 1.488281965255737 -4.649162292480469e-06 L 2.166501998901367 0.3796353340148926 L 2.000001907348633 0.9999953508377075 L 2.000001907348633 1.897335410118103 L 1.392091989517212 1.620235323905945 L 1.000001907348633 1.999995350837708 L 0.3847619295120239 1.897335410118103 L 0.3847619295120239 1.620235323905945 L 1.9073486328125e-06 1.400635361671448 L 0.2187519073486328 0.8527853488922119 L 1.9073486328125e-06 0.2369353771209717 L 0.5109819173812866 0.3796353340148926 L 0.3847619295120239 -0.1514846086502075 Z" stroke="none" fill="#e3a92b"/>
    </g>
    <g id="Path_2250" data-name="Path 2250" transform="translate(84.909 37.223) rotate(74)" fill="#fff">
      <path d="M 0.8847619295120239 1.567019820213318 L 0.8847619295120239 1.481394648551941 L 0.6326119303703308 1.337474584579468 L 0.6256725788116455 1.333513975143433 L 0.6831019520759583 1.189684629440308 L 0.7159241437911987 1.107488393783569 L 1.193581938743591 1.2408846616745 L 1.039997816085815 0.5946331024169922 L 1.326573610305786 0.6339712738990784 L 1.582720041275024 0.7773516774177551 L 1.517091989517212 1.021874666213989 L 1.500001907348633 1.085554599761963 L 1.500001907348633 1.151484608650208 L 1.500001907348633 1.271423101425171 L 1.28918194770813 1.175324678421021 L 1.04423201084137 1.412564635276794 L 0.8847619295120239 1.567019820213318 Z" stroke="none"/>
      <path d="M 0.3847619295120239 4.529953002929688e-06 L 1.488281965255737 0.1514847278594971 L 2.166501998901367 0.5311245918273926 L 2.000001907348633 1.151484608650208 L 2.000001907348633 2.048824548721313 L 1.392091989517212 1.771724700927734 L 1.000001907348633 2.151484727859497 L 0.3847619295120239 2.048824548721313 L 0.3847619295120239 1.771724700927734 L 1.9073486328125e-06 1.552124619483948 L 0.2187519073486328 1.004274606704712 L 1.9073486328125e-06 0.3884246349334717 L 0.5109819173812866 0.5311245918273926 L 0.3847619295120239 4.529953002929688e-06 Z" stroke="none" fill="#e3a92b"/>
    </g>
    <g id="Path_2251" data-name="Path 2251" transform="translate(88.648 42.5)" fill="#fff">
      <path d="M 0.6470139026641846 1.304311752319336 L 0.5513350963592529 1.263233423233032 L 0.5044599771499634 0.9847041964530945 L 0.5736531615257263 0.3356371521949768 L 0.5874335169792175 0.327730268239975 L 0.9435392618179321 0.4858911335468292 L 1.089739203453064 0.5508211255073547 L 1.246489286422729 0.5188311338424683 L 1.514786124229431 0.4640641808509827 L 1.64705216884613 0.6950685381889343 L 1.661248803138733 0.7612766027450562 L 1.503639221191406 0.8205011487007141 L 1.446025252342224 0.9627618193626404 L 0.837159276008606 0.4780211448669434 L 0.6592192649841309 1.25127112865448 L 0.6470139026641846 1.304311752319336 Z" stroke="none"/>
      <path d="M 0.5585892200469971 -0.2321789264678955 L 1.146489262580872 0.0289311408996582 L 1.769039273262024 -0.09814882278442383 L 2.119629144668579 0.5141611099243164 L 2.240479230880737 1.077761173248291 L 1.884769201278687 1.211421132087708 L 1.769039273262024 1.497191190719604 L 1.462649345397949 1.615111112594604 L 1.146489262580872 1.363401174545288 L 0.9999992847442627 2.000001192092896 L 0.1035192012786865 1.615111112594604 L -7.152557373046875e-07 1.000001192092896 L 0.1035192012786865 0.0289311408996582 L 0.5585892200469971 -0.2321789264678955 Z" stroke="none" fill="#e3a92b"/>
    </g>
    <g id="Path_2252" data-name="Path 2252" transform="translate(39.787 118.117)" fill="#fff">
      <path d="M1.195-.012l1.028.1L1.659.815l.564.64-1.028.419L.836,1.216,0,.931.637.493V-.2Z" stroke="none"/>
      <path d="M 0.6366680860519409 -0.204837441444397 L 1.194598078727722 -0.01172745227813721 L 2.222658157348633 0.09000253677368164 L 1.658898115158081 0.8147925138473511 L 2.222658157348633 1.45511257648468 L 1.194598078727722 1.873782515525818 L 0.8361581563949585 1.215972542762756 L -1.9073486328125e-06 0.9310225248336792 L 0.6366680860519409 0.4932525157928467 L 0.6366680860519409 -0.204837441444397 Z" stroke="none" fill="#e3a92b"/>
    </g>
    <g id="Path_2253" data-name="Path 2253" transform="translate(43.79 114.304) rotate(-51)" fill="#fff">
      <path d="M1,0l.308.471.7.095-.567.492.073.474L1,1.425v.689L0,1.057.731.75Z" stroke="none"/>
      <path d="M 1.004425644874573 -2.86102294921875e-06 L 1.31242561340332 0.4705772399902344 L 2.015235662460327 0.5653172731399536 L 1.448525667190552 1.05731725692749 L 1.52159571647644 1.530997276306152 L 1.004425644874573 1.425157308578491 L 1.004425644874573 2.11463737487793 L -4.291534423828125e-06 1.05731725692749 L 0.7312556505203247 0.7501372098922729 L 1.004425644874573 -2.86102294921875e-06 Z" stroke="none" fill="#e3a92b"/>
    </g>
    <g id="Path_2254" data-name="Path 2254" transform="matrix(0.017, -1, 1, 0.017, 47.51, 110.26)" fill="#fff">
      <path d="M1,0l.552.5L.91.918H2l-.376.609L1,1.837l-.29-.475L0,.918.259.246.781.361Z" stroke="none"/>
      <path d="M 1.00180995464325 3.218650817871094e-06 L 1.553339958190918 0.4984031915664673 L 0.9095999002456665 0.9183332324028015 L 2.003619909286499 0.9183332324028015 L 1.627939939498901 1.527713298797607 L 1.00180995464325 1.836663246154785 L 0.7114899158477783 1.361803293228149 L 0 0.9183332324028015 L 0.2587699890136719 0.2455031871795654 L 0.7811999320983887 0.3607432842254639 L 1.00180995464325 3.218650817871094e-06 Z" stroke="none" fill="#e3a92b"/>
    </g>
    <g id="Path_2255" data-name="Path 2255" transform="matrix(-0.259, 0.966, -0.966, -0.259, 52.677, 103.341)" fill="#fff">
      <path d="M1.094,0,.91.278,2.187.724l-.618.346-.475.813L.91,1.07,0,.724.545,0Z" stroke="none"/>
      <path d="M 0.5446240901947021 -1.788139343261719e-06 L 1.093524098396301 -1.788139343261719e-06 L 0.910114049911499 0.2775782346725464 L 2.187044143676758 0.7238082885742188 L 1.568734169006348 1.070148229598999 L 1.093524098396301 1.882798314094543 L 0.910114049911499 1.070148229598999 L 4.053115844726562e-06 0.7238082885742188 L 0.5446240901947021 -1.788139343261719e-06 Z" stroke="none" fill="#e3a92b"/>
    </g>
    <g id="Path_2256" data-name="Path 2256" transform="translate(34.816 125.889) rotate(25)" fill="#fff">
      <path d="M1.476.47.889.418,1.046,0,0,.052.474.326,0,1.589l.755-.381.483.381L1.029.91Z" stroke="none"/>
      <path d="M 1.046358942985535 1.311302185058594e-06 L 0.8893789649009705 0.4181312322616577 L 1.476398944854736 0.4702613353729248 L 1.02898895740509 0.9100912809371948 L 1.23793888092041 1.589141249656677 L 0.7546389102935791 1.20785129070282 L -1.072883605957031e-06 1.589141249656677 L 0.4741588830947876 0.3261512517929077 L -1.072883605957031e-06 0.05152130126953125 L 1.046358942985535 1.311302185058594e-06 Z" stroke="none" fill="#e3a92b"/>
    </g>
    <g id="Path_2257" data-name="Path 2257" transform="translate(54.046 99.883) rotate(-101)" fill="#fff">
      <path d="M1.381,0l.129,1.624,1.252-.177L1.238,2.1l.143.792L0,1.447a.807.807,0,0,0,.839-.166A3.452,3.452,0,0,0,1.381,0Z" stroke="none"/>
      <path d="M 1.3812255859375 1.430511474609375e-06 L 1.51071560382843 1.623661518096924 L 2.762455701828003 1.447021484375 L 1.237905621528625 2.101641416549683 L 1.3812255859375 2.894041538238525 L -4.529953002929688e-06 1.447021484375 C -4.529953002929688e-06 1.447021484375 0.4933459758758545 1.642381429672241 0.8386455774307251 1.280631542205811 C 1.183955550193787 0.9188715219497681 1.3812255859375 1.430511474609375e-06 1.3812255859375 1.430511474609375e-06 Z" stroke="none" fill="#e3a92b"/>
    </g>
    <g id="Path_2258" data-name="Path 2258" transform="matrix(0.545, 0.839, -0.839, 0.545, 60.145, 90.971)" fill="#fff">
      <path d="M.778,0l.237.725,1.239.285-.837.46L.778,2.941l.237-1.216L0,1.47.675.725Z" stroke="none"/>
      <path d="M 0.7780231237411499 -9.5367431640625e-07 L 1.015263080596924 0.7251191139221191 L 2.253903150558472 1.010499000549316 L 1.416433095932007 1.470339059829712 L 0.7780231237411499 2.94067907333374 L 1.015263080596924 1.724489092826843 L 3.099441528320312e-06 1.470339059829712 L 0.6750731468200684 0.7251191139221191 L 0.7780231237411499 -9.5367431640625e-07 Z" stroke="none" fill="#e3a92b"/>
    </g>
    <g id="Path_2259" data-name="Path 2259" transform="translate(62.246 85.033) rotate(49)" fill="#fff">
      <path d="M1.147,0,2.295.663H1.7V1.12l-.457.23.085.783L0,.663H.956Z" stroke="none"/>
      <path d="M 1.14742648601532 3.576278686523438e-06 L 2.294856548309326 0.6626735925674438 L 1.702086448669434 0.6626735925674438 L 1.702086448669434 1.120043635368347 L 1.245476484298706 1.350103616714478 L 1.330356478691101 2.133463621139526 L -3.576278686523438e-06 0.6626735925674438 L 0.9563764333724976 0.6626735925674438 L 1.14742648601532 3.576278686523438e-06 Z" stroke="none" fill="#e3a92b"/>
    </g>
    <g id="Path_2260" data-name="Path 2260" transform="translate(30.987 129.853)" fill="#fff">
      <path d="M -0.02768885716795921 1.155301451683044 L -0.184888944029808 0.9728663563728333 L -0.4589067101478577 1.072227835655212 L -0.4607265293598175 1.046824336051941 L -0.07893290370702744 0.6006905436515808 L 0.1365594267845154 0.5671283602714539 L 0.1777710616588593 0.7644762992858887 L 0.2000564336776733 0.8711870908737183 L 0.04044105485081673 0.9523563385009766 L -0.0246389452368021 1.1462162733078 L -0.02768885716795921 1.155301451683044 Z" stroke="none"/>
      <path d="M 0.5289110541343689 -3.576278686523438e-06 L 0.6672110557556152 0.6622663736343384 L 1.290281057357788 0.8777363300323486 L 0.4493610560894012 1.305346250534058 L 0.1668210476636887 2.146976232528687 L -0.3385889530181885 1.560456275939941 L -0.9103589057922363 1.767786264419556 L -0.9741189479827881 0.8777363300323486 L -0.3385889530181885 0.1351063251495361 L 0.5289110541343689 -3.576278686523438e-06 Z" stroke="none" fill="#e3a92b"/>
    </g>
    <g id="Path_2261" data-name="Path 2261" transform="translate(37.5 122.644)" fill="#fff">
      <path d="M 0.7589111328125 0.8077239990234375 L 0.5000011324882507 0.5279042720794678 L 0.5000011324882507 0.1568356305360794 L 0.7177293300628662 0.04578681290149689 L 0.9446460008621216 0.2053475975990295 L 0.9912614226341248 0.5566089749336243 L 0.7589111328125 0.8077239990234375 Z" stroke="none"/>
      <path d="M 0.7589111328125 -0.5364968776702881 L 1.411471128463745 -0.07763683795928955 L 1.517821073532104 0.7237431406974792 L 0.7589111328125 1.543943166732788 L 1.192092895507812e-06 0.7237431406974792 L 1.192092895507812e-06 -0.1494268178939819 L 0.7589111328125 -0.5364968776702881 Z" stroke="none" fill="#e3a92b"/>
    </g>
    <g id="Path_2262" data-name="Path 2262" transform="translate(25.82 133.999)" fill="#fff">
      <path d="M 1.086770415306091 1.477474570274353 L 0.9818017482757568 1.308957457542419 L 0.809114396572113 1.031722187995911 L 1.115321755409241 0.7705474495887756 L 0.9415467977523804 0.5134874582290649 L 1.083151698112488 0.5134874582290649 L 1.131121754646301 0.4715302586555481 L 1.131121754646301 0.7896774411201477 L 1.131121754646301 1.063557505607605 L 1.361921668052673 1.211017489433289 L 1.381517291069031 1.223537445068359 L 1.28255295753479 1.387435555458069 L 1.086770415306091 1.477474570274353 Z" stroke="none"/>
      <path d="M 1.212081670761108 -0.2635524272918701 L 1.631121754646301 0.2409974336624146 L 1.631121754646301 0.7896775007247925 L 2.061521768569946 1.064667463302612 L 1.631121754646301 1.777467489242554 L 0.8953417539596558 2.115847587585449 L 0.5574017763137817 1.573317527770996 L 0.07913172245025635 1.645557403564453 L 1.668930053710938e-06 1.064667463302612 L 0.4507317543029785 0.680227518081665 L 1.668930053710938e-06 0.01348745822906494 L 0.8953417539596558 0.01348745822906494 L 1.212081670761108 -0.2635524272918701 Z" stroke="none" fill="#e3a92b"/>
    </g>
    <g id="Path_2263" data-name="Path 2263" transform="translate(65.082 79.29)" fill="#fff">
      <path d="M 0.6970069408416748 2.033705234527588 L 0.3632310628890991 1.88275408744812 L 0.1121972054243088 1.496306657791138 L 0.3228868842124939 1.188578963279724 L 0.3878568708896637 1.093669056892395 L 0.4048368632793427 0.9799190163612366 L 0.4833121597766876 0.4541234970092773 L 0.6163931488990784 0.3746662437915802 L 1.029494643211365 0.4516817033290863 L 1.114571094512939 0.5337445735931396 L 1.041836857795715 0.7393689751625061 L 0.9600228071212769 0.9706645011901855 L 0.768626868724823 0.8715590238571167 L 0.768626868724823 1.693518996238708 L 0.768626868724823 1.991673827171326 L 0.6970069408416748 2.033705234527588 Z" stroke="none"/>
      <path d="M 0.5222968459129333 -0.1514909267425537 L 1.268626928329468 -0.01235103607177734 L 1.69322681427002 0.3972089290618896 L 1.513216853141785 0.9061089754104614 L 1.926456928253174 0.9061089754104614 L 1.984866857528687 1.489009022712708 L 1.69322681427002 1.913378953933716 L 1.268626928329468 1.693518996238708 L 1.268626928329468 2.277978897094727 L 0.7268168926239014 2.595948934555054 L 0.02373683452606201 2.277978897094727 L -0.4887731075286865 1.489009022712708 L -0.0896831750869751 0.9061089754104614 L 0.02373683452606201 0.1461789608001709 L 0.5222968459129333 -0.1514909267425537 Z" stroke="none" fill="#e3a92b"/>
    </g>
    <g id="Path_2264" data-name="Path 2264" transform="translate(73.338 65.573)" fill="#fff">
      <path d="M 0.5219296216964722 1.392146229743958 L 0.2454583197832108 1.281095266342163 L 0.2107710689306259 1.26716160774231 L 0.484708309173584 1.080145239830017 L 0.4221854507923126 0.9976567625999451 L 0.4910583198070526 1.041905283927917 L 0.7545497417449951 1.211191177368164 L 0.7429619431495667 1.2942715883255 L 0.5219296216964722 1.392146229743958 Z" stroke="none"/>
      <path d="M 0.1389583200216293 -0.2751448154449463 L 0.5313982963562012 -0.007884740829467773 L 1.199748277664185 -0.007884740829467773 L 0.7613183259963989 0.621245265007019 L 1.293948292732239 0.963445246219635 L 1.199748277664185 1.638825178146362 L 0.5313982963562012 1.934775233268738 L 0.05909833312034607 1.745065212249756 L -0.5962116718292236 2.098875284194946 L -0.9733916521072388 1.638825178146362 L -0.8901716470718384 1.212675213813782 L -0.5962116718292236 1.212675213813782 L -0.2311416864395142 0.963445246219635 L -0.5962116718292236 0.4818052053451538 L -0.3391116857528687 -0.007884740829467773 L 0.1389583200216293 -0.2751448154449463 Z" stroke="none" fill="#e3a92b"/>
    </g>
    <g id="Path_2265" data-name="Path 2265" transform="translate(76.631 58.244)" fill="#fff">
      <path d="M 0.5167152881622314 1.011958479881287 L 0.5059094429016113 0.9375430345535278 L 0.5977661609649658 0.3766261041164398 L 0.6749294400215149 0.4190115332603455 L 0.787369430065155 0.480771541595459 L 0.9156494140625 0.480771541595459 L 1.198934435844421 0.480771541595459 L 1.293768882751465 0.8500038981437683 L 1.249207854270935 0.921458899974823 L 0.9856094121932983 0.884211540222168 L 0.8407194018363953 0.8637415170669556 L 0.7076594233512878 0.9246115684509277 L 0.5167152881622314 1.011958479881287 Z" stroke="none"/>
      <path d="M 0.2186293601989746 -0.4020984172821045 L 0.9156494140625 -0.01922845840454102 L 1.586739420890808 -0.01922845840454102 L 1.831299424171448 0.9329515695571899 L 1.501339435577393 1.462051510810852 L 0.9156494140625 1.379291534423828 L 0.1178094148635864 1.744261503219604 L -5.960464477539062e-07 0.9329515695571899 L 0.2186293601989746 -0.4020984172821045 Z" stroke="none" fill="#e3a92b"/>
    </g>
    <line id="Line_37" data-name="Line 37" y1="21.142" x2="125" transform="translate(30.5 122.358)" fill="none" stroke="#fff" stroke-linecap="round" stroke-width="1.5"/>
  </g>
</svg>
