<?xml version="1.0" encoding="utf-8"?>
<!-- Generator: Adobe Illustrator 27.8.1, SVG Export Plug-In . SVG Version: 6.00 Build 0)  -->
<svg version="1.1" id="Layer_1" xmlns="http://www.w3.org/2000/svg" xmlns:xlink="http://www.w3.org/1999/xlink" x="0px" y="0px"
	 viewBox="0 0 181.3 77.6" style="enable-background:new 0 0 181.3 77.6;" xml:space="preserve" width="181.255" height="77.573">
<style type="text/css">
	.st0{fill:#FFFFFF;}
	.st1{display:none;fill:#FFFFFF;}
	.st2{fill:#E3A92B;}
</style>
<g id="Group_86" transform="translate(-52.744 -126.781)">
	<g>
		<path class="st0" d="M59.4,200.6c-3.3,0-4.8-2.1-4.8-5.2c0-3.1,1.5-5.1,4.8-5.1c3.2,0,4.7,2,4.7,5.1
			C64.2,198.5,62.7,200.6,59.4,200.6z M59.4,198.8c1.8,0,2.5-1.3,2.5-3.4s-0.7-3.4-2.5-3.4s-2.5,1.3-2.5,3.4S57.7,198.8,59.4,198.8z
			"/>
		<path class="st0" d="M66.1,200.5v-7.6h1.6l0.3,1h0.1c0.5-0.8,1.4-1.1,2.4-1.1c1.6,0,2.7,0.8,2.7,2.8v5h-2.1V196
			c0-1.1-0.4-1.7-1.2-1.7c-1.3,0-1.7,0.9-1.7,2.5v3.6H66.1z"/>
		<path class="st0" d="M81.9,196.2v1H77c0,1.2,0.7,1.9,1.9,1.9c1,0,1.7-0.2,2.6-0.6v1.6c-0.8,0.4-1.5,0.5-2.7,0.5
			c-2.3,0-3.9-1.3-3.9-3.9c0-2.7,1.5-4,3.6-4C80.6,192.7,81.9,193.9,81.9,196.2z M77,195.8h2.9c0-0.9-0.5-1.6-1.5-1.6
			C77.6,194.2,77.1,194.7,77,195.8z"/>
		<path class="st0" d="M85.9,190.5v3.9h4v-3.9h2.1v10h-2.1v-4.3h-4v4.3h-2.1v-10H85.9z"/>
		<path class="st0" d="M100.9,196.2v1h-4.9c0,1.2,0.7,1.9,1.9,1.9c1,0,1.7-0.2,2.6-0.6v1.6c-0.8,0.4-1.5,0.5-2.7,0.5
			c-2.3,0-3.9-1.3-3.9-3.9c0-2.7,1.5-4,3.6-4C99.6,192.7,100.9,193.9,100.9,196.2z M96,195.8h2.9c0-0.9-0.5-1.6-1.5-1.6
			C96.6,194.2,96.1,194.7,96,195.8z"/>
		<path class="st0" d="M102.1,198.2c0-1.6,1.1-2.3,3.4-2.4l1.3,0v-0.3c0-0.8-0.4-1.2-1.2-1.2c-0.7,0-1.4,0.2-2.2,0.6l-0.7-1.4
			c0.8-0.4,1.8-0.7,2.9-0.7c2.1,0,3.2,0.9,3.2,2.7v5.1h-1.5l-0.4-1H107c-0.7,0.8-1.3,1.2-2.5,1.2
			C103.1,200.6,102.1,199.9,102.1,198.2z M105.2,199.1c0.9,0,1.6-0.6,1.6-1.5v-0.6l-0.8,0c-1.3,0-1.8,0.5-1.8,1.2
			C104.2,198.8,104.6,199.1,105.2,199.1z"/>
		<path class="st0" d="M113.1,200.5H111v-10.6h2.1V200.5z"/>
		<path class="st0" d="M114.5,194.4v-0.9l1.1-0.7l0.6-1.6h1.3v1.6h2.1v1.6h-2.1v3.7c0,0.6,0.4,0.9,0.9,0.9c0.5,0,0.9-0.1,1.3-0.2
			v1.6c-0.4,0.2-1.1,0.3-1.9,0.3c-1.4,0-2.4-0.6-2.4-2.5v-3.7H114.5z"/>
		<path class="st0" d="M123.4,189.8v2.2c0,0.8-0.1,1.5-0.1,1.8h0.1c0.5-0.8,1.3-1.1,2.2-1.1c1.6,0,2.7,0.8,2.7,2.8v5h-2.1V196
			c0-1.1-0.4-1.7-1.2-1.7c-1.2,0-1.7,0.9-1.7,2.5v3.6h-2.1v-10.6H123.4z"/>
		<path class="st0" d="M134.5,190.5v1.2l-1.2,0.6v6.5l1.2,0.6v1.2h-4.6v-1.2l1.2-0.6v-6.5l-1.2-0.6v-1.2H134.5z"/>
		<path class="st0" d="M139,200.5h-2.8v-10h3.1c3.1,0,5.2,1.7,5.2,4.9C144.5,198.7,142.4,200.5,139,200.5z M139.4,192.2h-1.1v6.5
			h0.9c2,0,3.1-1.1,3.1-3.3S141.3,192.2,139.4,192.2z"/>
		<path class="st0" d="M152.4,200.6c-1.1,0-2-0.2-2.8-0.6v-2c1,0.4,2,0.8,3,0.8c1.1,0,1.4-0.4,1.4-1.1c0-0.8-0.8-1.1-1.9-1.6
			c-0.9-0.4-2.4-1.2-2.4-3c0-1.8,1.3-2.8,3.4-2.8c1.1,0,1.9,0.3,3,0.7l-0.7,1.7c-0.9-0.4-1.6-0.6-2.4-0.6c-0.8,0-1.2,0.4-1.2,1
			c0,0.4,0.2,0.6,0.5,0.8s0.8,0.5,1.4,0.8c1.5,0.7,2.4,1.4,2.4,3C156.1,199.5,154.7,200.6,152.4,200.6z"/>
		<path class="st0" d="M164.3,196.2v1h-4.9c0,1.2,0.7,1.9,1.9,1.9c1,0,1.7-0.2,2.6-0.6v1.6c-0.8,0.4-1.5,0.5-2.7,0.5
			c-2.3,0-3.9-1.3-3.9-3.9c0-2.7,1.5-4,3.6-4C163,192.7,164.3,193.9,164.3,196.2z M159.4,195.8h2.9c0-0.9-0.5-1.6-1.5-1.6
			C160.1,194.2,159.5,194.7,159.4,195.8z"/>
		<path class="st0" d="M171,192.7l-0.2,2c-0.2,0-0.4-0.1-0.6-0.1c-1.1,0-2.1,0.5-2.1,1.9v3.9H166v-7.6h1.6l0.3,1.3h0.1
			c0.4-0.8,1.3-1.4,2.3-1.4C170.5,192.7,170.8,192.7,171,192.7z"/>
		<path class="st0" d="M173.4,192.8l1.5,4.4c0.2,0.5,0.3,1.1,0.3,1.6h0.1c0-0.5,0.1-1,0.3-1.6l1.5-4.4h2.2l-2.9,7.6h-2.1l-2.9-7.6
			H173.4z"/>
		<path class="st0" d="M182.5,190.8c0,0.8-0.5,1-1.1,1c-0.6,0-1.1-0.3-1.1-1c0-0.8,0.5-1,1.1-1C182,189.8,182.5,190.1,182.5,190.8z
			 M182.4,192.8v7.6h-2.1v-7.6H182.4z"/>
		<path class="st0" d="M184.1,196.7c0-2.8,1.5-4,3.8-4c1,0,1.8,0.2,2.4,0.5l-0.6,1.6c-0.7-0.3-1.2-0.4-1.8-0.4
			c-1.1,0-1.6,0.8-1.6,2.3c0,1.5,0.6,2.2,1.6,2.2c0.9,0,1.5-0.3,2.1-0.7v1.8c-0.6,0.4-1.3,0.6-2.3,0.6
			C185.4,200.6,184.1,199.4,184.1,196.7z"/>
		<path class="st0" d="M198.4,196.2v1h-4.9c0,1.2,0.7,1.9,1.9,1.9c1,0,1.7-0.2,2.6-0.6v1.6c-0.8,0.4-1.5,0.5-2.7,0.5
			c-2.3,0-3.9-1.3-3.9-3.9c0-2.7,1.5-4,3.6-4C197,192.7,198.4,193.9,198.4,196.2z M193.5,195.8h2.9c0-0.9-0.5-1.6-1.5-1.6
			C194.1,194.2,193.6,194.7,193.5,195.8z"/>
	</g>
	<path id="Path_2396" class="st1" d="M61.8,193.1c0,0.5-0.1,1-0.4,1.5c-0.3,0.5-0.7,0.9-1.2,1.1c-0.7,0.3-1.4,0.5-2.1,0.4h-1.9v4.2
		h-1.7V190h3.6c0.7,0,1.4,0.1,2,0.4c0.5,0.2,0.9,0.6,1.2,1.1C61.7,192.1,61.8,192.6,61.8,193.1z M58.1,194.8c0.5,0,1-0.1,1.5-0.4
		c0.3-0.3,0.5-0.8,0.5-1.3c0-1.1-0.6-1.7-1.9-1.7h-1.9v3.4L58.1,194.8z M65.2,193.4c0.2-0.4,0.6-0.7,1-1c0.5-0.2,1-0.4,1.5-0.4v1.8
		h-0.4c-0.6,0-1.1,0.1-1.5,0.5c-0.4,0.5-0.6,1.1-0.5,1.8v4.4h-1.7v-8.3h1.7V193.4z M72.8,200.6c-0.7,0-1.5-0.2-2.1-0.5
		c-0.6-0.4-1.1-0.9-1.5-1.5c-0.4-0.7-0.6-1.5-0.5-2.2c0-0.8,0.2-1.6,0.6-2.2c0.4-0.6,0.9-1.2,1.5-1.5c0.7-0.4,1.4-0.5,2.1-0.5
		c0.7,0,1.5,0.2,2.1,0.5c0.6,0.3,1.2,0.9,1.5,1.5c0.4,0.7,0.6,1.5,0.6,2.2c0,0.8-0.2,1.6-0.6,2.2c-0.4,0.6-0.9,1.2-1.6,1.5
		C74.3,200.4,73.6,200.6,72.8,200.6z M72.8,199.1c0.4,0,0.9-0.1,1.2-0.3c0.4-0.2,0.7-0.5,0.9-0.9c0.3-0.5,0.4-1,0.4-1.5
		c0-0.5-0.1-1.1-0.3-1.5c-0.2-0.4-0.5-0.7-0.9-0.9c-0.4-0.2-0.8-0.3-1.2-0.3c-0.4,0-0.8,0.1-1.2,0.3c-0.4,0.2-0.7,0.5-0.9,0.9
		c-0.2,0.5-0.3,1-0.3,1.5c0,0.7,0.2,1.5,0.7,2.1C71.5,198.9,72.1,199.1,72.8,199.1z M82,198.9l2.3-6.7h1.8l-3.2,8.3h-2l-3.1-8.3h1.8
		L82,198.9z M88.3,191.1c-0.3,0-0.6-0.1-0.8-0.3c-0.2-0.2-0.3-0.5-0.3-0.8c0-0.3,0.1-0.6,0.3-0.8c0.2-0.2,0.5-0.3,0.8-0.3
		c0.3,0,0.6,0.1,0.8,0.3c0.2,0.2,0.3,0.5,0.3,0.8c0,0.3-0.1,0.6-0.3,0.8C88.9,191,88.6,191.1,88.3,191.1z M89.1,192.2v8.3h-1.7v-8.3
		L89.1,192.2z M90.8,196.3c0-0.8,0.2-1.5,0.5-2.2c0.3-0.6,0.8-1.1,1.4-1.5c0.6-0.4,1.3-0.6,2-0.5c0.6,0,1.1,0.1,1.6,0.4
		c0.5,0.2,0.9,0.5,1.3,0.9v-4h1.7v11.1h-1.7v-1.2c-0.3,0.4-0.7,0.8-1.2,1c-0.5,0.3-1.1,0.4-1.7,0.4c-0.7,0-1.4-0.2-2-0.5
		c-0.6-0.4-1.1-0.9-1.4-1.5C91,197.8,90.8,197.1,90.8,196.3L90.8,196.3z M97.6,196.3c0-0.5-0.1-1-0.4-1.5c-0.2-0.4-0.5-0.7-0.9-1
		c-0.4-0.2-0.8-0.3-1.2-0.3c-0.4,0-0.9,0.1-1.2,0.3c-0.4,0.2-0.7,0.6-0.9,0.9c-0.2,0.5-0.4,1-0.4,1.5c0,0.5,0.1,1,0.4,1.5
		c0.2,0.4,0.5,0.7,0.9,1c0.4,0.2,0.8,0.3,1.2,0.3c0.4,0,0.9-0.1,1.2-0.3c0.4-0.2,0.7-0.6,0.9-1C97.5,197.4,97.6,196.9,97.6,196.3
		L97.6,196.3z M109.1,196.1c0,0.3,0,0.6-0.1,0.8h-6.3c0,0.6,0.3,1.2,0.7,1.6c0.4,0.4,1,0.6,1.6,0.6c0.8,0.1,1.6-0.4,1.9-1.2h1.8
		c-0.2,0.7-0.7,1.4-1.4,1.9c-0.7,0.5-1.6,0.8-2.4,0.7c-0.7,0-1.5-0.2-2.1-0.5c-0.6-0.4-1.1-0.9-1.5-1.5c-0.4-0.7-0.5-1.5-0.5-2.2
		c0-0.8,0.2-1.6,0.5-2.2c0.3-0.6,0.8-1.1,1.5-1.5c0.7-0.4,1.4-0.5,2.2-0.5c0.7,0,1.4,0.2,2.1,0.5c0.6,0.3,1.1,0.8,1.4,1.4
		C109,194.7,109.1,195.4,109.1,196.1L109.1,196.1z M107.3,195.6c0-0.6-0.2-1.1-0.7-1.5c-0.5-0.4-1-0.6-1.6-0.6
		c-0.6,0-1.1,0.2-1.5,0.6c-0.4,0.4-0.7,0.9-0.8,1.5L107.3,195.6z M112.5,193.4c0.2-0.4,0.6-0.7,1-1c0.5-0.2,1-0.4,1.5-0.4v1.8h-0.4
		c-0.6,0-1.1,0.1-1.5,0.5c-0.4,0.5-0.6,1.1-0.5,1.8v4.4h-1.7v-8.3h1.7L112.5,193.4z M122.2,190v10.4h-1.7V190L122.2,190z
		 M123.9,196.3c0-0.8,0.2-1.5,0.5-2.2c0.3-0.6,0.8-1.1,1.4-1.5c0.6-0.4,1.3-0.5,2-0.5c0.6,0,1.1,0.1,1.6,0.4
		c0.5,0.2,0.9,0.5,1.3,0.9v-4h1.7v11.1h-1.7v-1.2c-0.3,0.4-0.7,0.8-1.2,1c-0.5,0.3-1.1,0.4-1.7,0.4c-0.7,0-1.4-0.2-2-0.5
		c-0.6-0.4-1.1-0.9-1.4-1.5C124,197.8,123.8,197.1,123.9,196.3L123.9,196.3z M130.6,196.3c0-0.5-0.1-1-0.4-1.5
		c-0.2-0.4-0.5-0.7-0.9-1c-0.4-0.2-0.8-0.3-1.2-0.3c-0.4,0-0.9,0.1-1.2,0.3c-0.4,0.2-0.7,0.6-0.9,0.9c-0.2,0.5-0.4,1-0.4,1.5
		c0,0.5,0.1,1,0.4,1.5c0.2,0.4,0.5,0.7,0.9,1c0.4,0.2,0.8,0.3,1.2,0.3c0.4,0,0.9-0.1,1.2-0.3c0.4-0.2,0.7-0.6,0.9-1
		C130.5,197.4,130.6,196.8,130.6,196.3L130.6,196.3z M142.2,196.1c0,0.3,0,0.6-0.1,0.8h-6.3c0,0.6,0.3,1.2,0.7,1.6
		c0.4,0.4,1,0.6,1.6,0.6c0.8,0.1,1.6-0.4,1.9-1.2h1.8c-0.2,0.8-0.7,1.4-1.4,1.9c-0.7,0.5-1.6,0.8-2.4,0.7c-0.7,0-1.5-0.2-2.1-0.5
		c-0.6-0.4-1.1-0.9-1.5-1.5c-0.4-0.7-0.5-1.5-0.5-2.2c0-0.8,0.2-1.6,0.5-2.2c0.3-0.6,0.8-1.1,1.5-1.5c0.7-0.4,1.4-0.5,2.1-0.5
		c0.7,0,1.4,0.2,2.1,0.5c0.6,0.3,1.1,0.8,1.4,1.4C142,194.7,142.2,195.4,142.2,196.1z M140.4,195.6c0-0.6-0.2-1.1-0.7-1.5
		c-0.5-0.4-1-0.6-1.6-0.6c-0.6,0-1.1,0.2-1.5,0.6c-0.4,0.4-0.7,0.9-0.8,1.5L140.4,195.6z M148,192.1c0.6,0,1.2,0.1,1.7,0.4
		c0.5,0.3,0.9,0.7,1.2,1.2c0.3,0.6,0.5,1.3,0.4,1.9v4.9h-1.7v-4.6c0-0.6-0.2-1.2-0.6-1.7c-0.4-0.4-0.9-0.6-1.5-0.6
		c-0.6,0-1.1,0.2-1.5,0.6c-0.4,0.5-0.6,1.1-0.6,1.7v4.6h-1.7v-8.3h1.7v0.9c0.3-0.3,0.7-0.6,1.1-0.8
		C147.1,192.2,147.5,192.1,148,192.1z M155.6,193.6v4.6c0,0.2,0.1,0.5,0.2,0.7c0.2,0.2,0.5,0.2,0.7,0.2h1.1v1.4h-1.3
		c-0.6,0-1.3-0.1-1.8-0.5c-0.5-0.5-0.7-1.1-0.6-1.8v-4.6h-1v-1.4h1v-2.1h1.7v2.1h2v1.4L155.6,193.6z M160,191.1
		c-0.3,0-0.6-0.1-0.8-0.3c-0.2-0.2-0.3-0.5-0.3-0.8c0-0.3,0.1-0.6,0.3-0.8c0.2-0.2,0.5-0.3,0.8-0.3c0.3,0,0.6,0.1,0.8,0.3
		c0.2,0.2,0.3,0.5,0.3,0.8c0,0.3-0.1,0.6-0.3,0.8C160.6,191,160.3,191.1,160,191.1z M160.9,192.2v8.3h-1.7v-8.3L160.9,192.2z
		 M165.1,193.6v4.6c0,0.2,0.1,0.5,0.2,0.7c0.2,0.2,0.5,0.2,0.7,0.2h1.1v1.4h-1.4c-0.6,0-1.3-0.1-1.8-0.5c-0.5-0.5-0.7-1.1-0.6-1.8
		v-4.6h-1v-1.4h1v-2.1h1.7v2.1h2v1.4L165.1,193.6z M176.1,192.2l-5.1,12.1h-1.8l1.7-4l-3.3-8.1h1.9l2.3,6.3l2.4-6.3H176.1z
		 M188.6,193.2c0,0.5-0.1,1-0.4,1.5c-0.3,0.5-0.7,0.9-1.2,1.1c-0.7,0.3-1.4,0.5-2.1,0.4H183v4.2h-1.7V190h3.6c0.7,0,1.4,0.1,2,0.4
		c0.5,0.2,1,0.6,1.2,1.1C188.5,192.1,188.6,192.6,188.6,193.2L188.6,193.2z M184.9,194.9c0.5,0,1-0.1,1.5-0.4
		c0.3-0.3,0.5-0.8,0.5-1.3c0-1.1-0.6-1.7-1.9-1.7H183v3.4L184.9,194.9z M193.8,200.6c-0.7,0-1.5-0.2-2.1-0.5
		c-0.6-0.4-1.1-0.9-1.5-1.5c-0.4-0.7-0.6-1.5-0.5-2.2c0-0.8,0.2-1.6,0.6-2.2c0.4-0.6,0.9-1.2,1.5-1.5c0.7-0.4,1.4-0.5,2.1-0.5
		c0.7,0,1.5,0.2,2.1,0.5c0.6,0.3,1.2,0.9,1.5,1.5c0.4,0.7,0.6,1.5,0.6,2.2c0,0.8-0.2,1.6-0.6,2.2c-0.4,0.6-0.9,1.2-1.6,1.5
		C195.3,200.4,194.6,200.6,193.8,200.6L193.8,200.6z M193.8,199.1c0.4,0,0.9-0.1,1.2-0.3c0.4-0.2,0.7-0.5,0.9-0.9
		c0.3-0.5,0.4-1,0.4-1.5c0-0.5-0.1-1.1-0.3-1.5c-0.2-0.4-0.5-0.7-0.9-0.9c-0.4-0.2-0.8-0.3-1.2-0.3c-0.4,0-0.8,0.1-1.2,0.3
		c-0.4,0.2-0.7,0.5-0.9,0.9c-0.2,0.5-0.3,1-0.3,1.5c0,0.7,0.2,1.5,0.7,2.1C192.6,198.9,193.2,199.1,193.8,199.1L193.8,199.1z
		 M201.5,193.4c0.2-0.4,0.6-0.7,1-1c0.5-0.2,1-0.4,1.5-0.4v1.8h-0.4c-0.6,0-1.1,0.1-1.5,0.5c-0.4,0.5-0.6,1.1-0.5,1.8v4.3h-1.7v-8.3
		h1.7L201.5,193.4z M207.6,193.6v4.6c0,0.2,0.1,0.5,0.2,0.7c0.2,0.2,0.5,0.2,0.7,0.2h1.1v1.4h-1.4c-0.6,0-1.3-0.1-1.8-0.5
		c-0.5-0.5-0.7-1.1-0.6-1.8v-4.6h-1v-1.4h1v-2.1h1.7v2.1h2v1.4L207.6,193.6z M210.6,196.3c0-0.8,0.2-1.5,0.5-2.2
		c0.3-0.6,0.8-1.1,1.4-1.5c0.6-0.4,1.3-0.5,2-0.5c0.6,0,1.2,0.1,1.7,0.4c0.5,0.2,0.8,0.6,1.2,1v-1.2h1.7v8.3h-1.7v-1.2
		c-0.3,0.4-0.7,0.7-1.2,1c-0.5,0.3-1.1,0.4-1.7,0.4c-0.7,0-1.4-0.2-1.9-0.5c-0.6-0.4-1.1-0.9-1.4-1.5
		C210.8,197.8,210.6,197.1,210.6,196.3L210.6,196.3z M217.4,196.3c0-0.5-0.1-1-0.4-1.5c-0.2-0.4-0.5-0.7-0.9-1
		c-0.4-0.2-0.8-0.3-1.2-0.3c-0.4,0-0.9,0.1-1.2,0.3c-0.4,0.2-0.7,0.6-0.9,0.9c-0.2,0.5-0.4,1-0.4,1.5c0,0.5,0.1,1,0.4,1.5
		c0.2,0.4,0.5,0.7,0.9,1c0.4,0.2,0.8,0.3,1.2,0.3c0.4,0,0.9-0.1,1.2-0.3c0.4-0.2,0.7-0.6,0.9-1C217.3,197.4,217.4,196.9,217.4,196.3
		L217.4,196.3z M223,189.4v11.1h-1.7v-11.1L223,189.4z"/>
	<path id="Path_2323" class="st0" d="M148.4,137.1l6.2,3.2c-3.5,7.8-8.6,14.9-14.8,20.9c-9.9,9.2-24.9,16.1-24.9,16.1l-9.8-5.2
		c8.5-1.8,16.5-5.3,23.7-10.2C140.9,153.6,148.4,137.1,148.4,137.1z"/>
	<path id="Path_2324" class="st0" d="M150.7,153c0,0-1.8,7-1.4,11.9c0.2,2.8,1.2,5.5,2.9,7.7c0,0-5.5,0-12,0.5
		c-6.4,0.5-13.8,1.5-13.8,1.5l11.5-7.9l6.7-0.6l-1.3-4.8L150.7,153z"/>
	<path id="Path_2325" class="st0" d="M201,173.1l1.4,4.7c4.7,0.4,9.3,1.4,13.7,3c5.1,2,10,4.5,14.6,7.4c-3.5-3.3-7.5-6-11.8-8.1
		C213,177.3,207.1,175,201,173.1z"/>
	<path id="Path_2326" class="st0" d="M227.5,170.8c-0.8,2.6-1.2,5.4-1.2,8.2c0.1,2.3,0.8,4.6,1.9,6.6l-3.2-2.4l-1.3-5.8L227.5,170.8
		z"/>
	<path id="Path_2327" class="st0" d="M225.4,162.8l4,2l-12.2,15.3l-5.3-1l-3.1-0.9l0.9-1.7c3.3-0.5,6.4-1.8,9-4
		C222.6,169.1,225.4,162.8,225.4,162.8z"/>
	<circle id="Ellipse_66" class="st2" cx="111.3" cy="169.2" r="2"/>
	<circle id="Ellipse_67" class="st2" cx="122.2" cy="169.9" r="2"/>
	<circle id="Ellipse_68" class="st2" cx="126.3" cy="164.5" r="2"/>
	<circle id="Ellipse_69" class="st2" cx="133.7" cy="162.9" r="2"/>
	<circle id="Ellipse_70" class="st2" cx="137" cy="156.4" r="2"/>
	<circle id="Ellipse_71" class="st2" cx="144.6" cy="148.7" r="2"/>
	<circle id="Ellipse_72" class="st2" cx="143.5" cy="154.6" r="2"/>
	<circle id="Ellipse_73" class="st2" cx="150.5" cy="144.8" r="2"/>
	<circle id="Ellipse_74" class="st2" cx="148.5" cy="139.3" r="2"/>
	<circle id="Ellipse_75" class="st2" cx="215.6" cy="177.8" r="1.5"/>
	<circle id="Ellipse_76" class="st2" cx="220.5" cy="173.7" r="1.5"/>
	<circle id="Ellipse_77" class="st2" cx="225.4" cy="169.5" r="1.5"/>
	<circle id="Ellipse_78" class="st2" cx="225.3" cy="164.4" r="1.5"/>
	<path id="Path_2392" class="st0" d="M199.1,142l5.9,3.7c-4.2,7.5-9.8,14.1-16.5,19.5c-10.7,8.3-26.2,13.8-26.2,13.8l-9.3-6
		c8.6-1.1,16.9-3.8,24.5-8.1C190.2,157.8,199.1,142,199.1,142z"/>
	<path id="Path_2393" class="st0" d="M199.4,158.7c0,0-2.4,6.8-2.4,11.7c-0.1,2.8,0.7,5.6,2.2,8c0,0-5.5-0.5-12-0.6
		c-6.5-0.1-13.9,0.3-13.9,0.3l12.2-6.9l6.8,0l-0.9-4.9L199.4,158.7z"/>
	<circle id="Ellipse_94" class="st2" cx="159" cy="171.3" r="2"/>
	<circle id="Ellipse_95" class="st2" cx="170.1" cy="172.4" r="2"/>
	<circle id="Ellipse_96" class="st2" cx="174.7" cy="167.4" r="2"/>
	<circle id="Ellipse_97" class="st2" cx="182.2" cy="166.5" r="2"/>
	<circle id="Ellipse_98" class="st2" cx="186.1" cy="160.3" r="2"/>
	<circle id="Ellipse_99" class="st2" cx="194.3" cy="153.3" r="2"/>
	<circle id="Ellipse_100" class="st2" cx="192.7" cy="159.1" r="2"/>
	<circle id="Ellipse_101" class="st2" cx="200.5" cy="149.9" r="2"/>
	<circle id="Ellipse_102" class="st2" cx="199" cy="144.3" r="2"/>
	<path id="Path_2394" class="st0" d="M158.9,179.4l-37.9,1.3l-3.7-2.1l34-4.6L158.9,179.4z"/>
	<path id="Path_2395" class="st0" d="M101.5,172.8l-48.8,9.8l62.5-1.7L101.5,172.8z"/>
</g>
</svg>
