<?xml version="1.0" encoding="UTF-8"?>
<svg id="Layer_1" data-name="Layer 1" xmlns="http://www.w3.org/2000/svg" viewBox="0 0 181.26 77.57" width="181.255" height="77.573">
  <defs>
    <style>
      .cls-1 {
        fill: #e3a92b;
      }

      .cls-1, .cls-2 {
        stroke-width: 0px;
      }

      .cls-2 {
        fill: #fff;
      }
    </style>
  </defs>
  <g id="Group_86" data-name="Group 86">
    <path id="Path_2323" data-name="Path 2323" class="cls-2" d="m95.67,10.28l6.24,3.18c-3.55,7.83-8.55,14.92-14.75,20.88-9.91,9.23-24.88,16.07-24.88,16.07l-9.8-5.21c8.48-1.85,16.53-5.31,23.69-10.2,12.01-8.17,19.51-24.71,19.51-24.71Z"/>
    <path id="Path_2324" data-name="Path 2324" class="cls-2" d="m97.93,26.25s-1.79,6.96-1.41,11.87c.17,2.82,1.18,5.52,2.92,7.75,0,0-5.53-.03-11.97.46s-13.8,1.5-13.8,1.5l11.55-7.89,6.75-.61-1.32-4.79,7.29-8.28Z"/>
    <path id="Path_2325" data-name="Path 2325" class="cls-2" d="m148.24,46.3l1.37,4.65c4.67.4,9.27,1.41,13.67,3.01,5.08,2.03,9.96,4.51,14.58,7.43-3.52-3.26-7.49-6-11.79-8.15-5.77-2.74-11.73-5.07-17.84-6.95Z"/>
    <path id="Path_2326" data-name="Path 2326" class="cls-2" d="m174.74,44c-.82,2.64-1.24,5.39-1.25,8.15.14,2.32.81,4.58,1.94,6.61l-3.21-2.45-1.28-5.8,3.79-6.51Z"/>
    <path id="Path_2327" data-name="Path 2327" class="cls-2" d="m172.67,36.03l3.97,2.02-12.22,15.28-5.34-1.04-3.05-.89.88-1.67c3.3-.47,6.4-1.84,8.97-3.96,3.94-3.42,6.79-9.74,6.79-9.74Z"/>
    <circle id="Ellipse_66" data-name="Ellipse 66" class="cls-1" cx="58.53" cy="42.39" r="2"/>
    <circle id="Ellipse_67" data-name="Ellipse 67" class="cls-1" cx="69.43" cy="43.07" r="2"/>
    <circle id="Ellipse_68" data-name="Ellipse 68" class="cls-1" cx="73.52" cy="37.75" r="2"/>
    <circle id="Ellipse_69" data-name="Ellipse 69" class="cls-1" cx="80.96" cy="36.14" r="2"/>
    <circle id="Ellipse_70" data-name="Ellipse 70" class="cls-1" cx="84.26" cy="29.65" r="2"/>
    <circle id="Ellipse_71" data-name="Ellipse 71" class="cls-1" cx="91.87" cy="21.96" r="2"/>
    <circle id="Ellipse_72" data-name="Ellipse 72" class="cls-1" cx="90.73" cy="27.85" r="2"/>
    <circle id="Ellipse_73" data-name="Ellipse 73" class="cls-1" cx="97.73" cy="18.01" r="2"/>
    <circle id="Ellipse_74" data-name="Ellipse 74" class="cls-1" cx="95.74" cy="12.53" r="2"/>
    <circle id="Ellipse_75" data-name="Ellipse 75" class="cls-1" cx="162.87" cy="51.02" r="1.5"/>
    <circle id="Ellipse_76" data-name="Ellipse 76" class="cls-1" cx="167.75" cy="46.88" r="1.5"/>
    <circle id="Ellipse_77" data-name="Ellipse 77" class="cls-1" cx="172.63" cy="42.73" r="1.5"/>
    <circle id="Ellipse_78" data-name="Ellipse 78" class="cls-1" cx="172.6" cy="37.64" r="1.5"/>
    <path id="Path_2392" data-name="Path 2392" class="cls-2" d="m146.38,15.22l5.94,3.71c-4.22,7.49-9.82,14.12-16.52,19.51-10.67,8.34-26.19,13.84-26.19,13.84l-9.31-6.05c8.61-1.1,16.93-3.85,24.49-8.1,12.67-7.09,21.59-22.91,21.59-22.91Z"/>
    <path id="Path_2393" data-name="Path 2393" class="cls-2" d="m146.65,31.92s-2.39,6.78-2.44,11.7c-.08,2.82.7,5.6,2.23,7.97,0,0-5.5-.52-11.96-.59s-13.88.29-13.88.29l12.19-6.85,6.77-.02-.9-4.88,7.98-7.62Z"/>
    <circle id="Ellipse_94" data-name="Ellipse 94" class="cls-1" cx="106.26" cy="44.49" r="2"/>
    <circle id="Ellipse_95" data-name="Ellipse 95" class="cls-1" cx="117.39" cy="45.6" r="2"/>
    <circle id="Ellipse_96" data-name="Ellipse 96" class="cls-1" cx="121.92" cy="40.66" r="2"/>
    <circle id="Ellipse_97" data-name="Ellipse 97" class="cls-1" cx="129.48" cy="39.71" r="2"/>
    <circle id="Ellipse_98" data-name="Ellipse 98" class="cls-1" cx="133.33" cy="33.53" r="2"/>
    <circle id="Ellipse_99" data-name="Ellipse 99" class="cls-1" cx="141.58" cy="26.53" r="2"/>
    <circle id="Ellipse_100" data-name="Ellipse 100" class="cls-1" cx="139.93" cy="32.3" r="2"/>
    <circle id="Ellipse_101" data-name="Ellipse 101" class="cls-1" cx="147.77" cy="23.11" r="2"/>
    <circle id="Ellipse_102" data-name="Ellipse 102" class="cls-1" cx="146.26" cy="17.47" r="2"/>
    <path id="Path_2394" data-name="Path 2394" class="cls-2" d="m106.18,52.66l-37.88,1.34-3.68-2.15,33.97-4.58,7.59,5.39Z"/>
    <path id="Path_2395" data-name="Path 2395" class="cls-2" d="m48.76,46.06L0,55.89l62.5-1.7-13.74-8.13Z"/>
  </g>
  <g>
    <path class="cls-2" d="m8.24,73.85c-3.73,0-5.44-2.35-5.44-5.91s1.71-5.86,5.46-5.86,5.43,2.32,5.43,5.87-1.71,5.89-5.44,5.89Zm0-2.03c2.06,0,2.9-1.47,2.9-3.86s-.83-3.86-2.88-3.86-2.91,1.47-2.91,3.86.86,3.86,2.9,3.86Z"/>
    <path class="cls-2" d="m15.85,73.69v-8.74h1.82l.32,1.12h.13c.56-.9,1.6-1.28,2.69-1.28,1.87,0,3.11.96,3.11,3.2v5.7h-2.39v-5.11c0-1.27-.43-1.89-1.41-1.89-1.46,0-1.89,1.02-1.89,2.88v4.11h-2.38Z"/>
    <path class="cls-2" d="m33.89,68.76v1.15h-5.63c.05,1.34.83,2.16,2.18,2.16,1.1,0,1.98-.22,2.96-.69v1.84c-.88.43-1.73.62-3.07.62-2.61,0-4.48-1.44-4.48-4.47s1.66-4.59,4.13-4.59,3.92,1.42,3.92,3.97Zm-5.59-.43h3.35c-.02-1.04-.56-1.84-1.66-1.84-.94,0-1.57.58-1.68,1.84Z"/>
    <path class="cls-2" d="m42.59,62.26v4.48h4.53v-4.48h2.42v11.43h-2.42v-4.93h-4.53v4.93h-2.42v-11.43h2.42Z"/>
    <path class="cls-2" d="m59.74,68.76v1.15h-5.63c.05,1.34.83,2.16,2.18,2.16,1.1,0,1.98-.22,2.96-.69v1.84c-.88.43-1.73.62-3.07.62-2.61,0-4.48-1.44-4.48-4.47s1.66-4.59,4.13-4.59,3.92,1.42,3.92,3.97Zm-5.59-.43h3.35c-.02-1.04-.56-1.84-1.67-1.84-.94,0-1.57.58-1.68,1.84Z"/>
    <path class="cls-2" d="m61.1,71.08c0-1.86,1.3-2.67,3.91-2.79l1.52-.05v-.38c0-.91-.51-1.33-1.36-1.33s-1.65.27-2.46.64l-.78-1.62c.91-.46,2.11-.79,3.35-.79,2.35,0,3.63.99,3.63,3.09v5.83h-1.66l-.46-1.18h-.06c-.75.94-1.44,1.34-2.9,1.34-1.55,0-2.71-.86-2.71-2.77Zm3.6,1.03c1.02,0,1.82-.64,1.82-1.75v-.72l-.93.03c-1.54.05-2.05.59-2.05,1.42,0,.72.46,1.01,1.15,1.01Z"/>
    <path class="cls-2" d="m73.73,73.69h-2.38v-12.17h2.38v12.17Z"/>
    <path class="cls-2" d="m75.34,66.74v-1.01l1.31-.8.69-1.84h1.52v1.86h2.45v1.79h-2.45v4.21c0,.66.42.99,1.04.99.53,0,1.01-.1,1.5-.27v1.78c-.51.24-1.3.4-2.19.4-1.55,0-2.74-.64-2.74-2.9v-4.21h-1.14Z"/>
    <path class="cls-2" d="m85.55,61.52v2.48c0,.88-.06,1.74-.11,2.06h.13c.56-.9,1.46-1.28,2.53-1.28,1.87,0,3.14.96,3.14,3.2v5.7h-2.39v-5.11c0-1.27-.46-1.89-1.41-1.89-1.42,0-1.89,1.02-1.89,2.88v4.11h-2.38v-12.17h2.38Z"/>
    <path class="cls-2" d="m98.14,62.26v1.38l-1.39.64v7.4l1.39.64v1.38h-5.2v-1.38l1.39-.64v-7.4l-1.39-.64v-1.38h5.2Z"/>
    <path class="cls-2" d="m103.33,73.69h-3.23v-11.43h3.59c3.57,0,5.89,1.95,5.89,5.6,0,3.86-2.32,5.83-6.24,5.83Zm.48-9.44h-1.3v7.44h1.04c2.34,0,3.5-1.25,3.5-3.76s-1.14-3.68-3.25-3.68Z"/>
    <path class="cls-2" d="m118.62,73.85c-1.2,0-2.29-.22-3.23-.69v-2.26c1.09.46,2.27.94,3.43.94s1.65-.51,1.65-1.22c0-.87-.96-1.27-2.22-1.87-1.06-.5-2.72-1.33-2.72-3.41s1.49-3.25,3.87-3.25c1.2,0,2.19.29,3.39.8l-.78,1.89c-1.04-.43-1.81-.67-2.69-.67s-1.42.46-1.42,1.15c0,.4.18.72.54.96s.9.53,1.62.86c1.74.83,2.79,1.63,2.79,3.42,0,2.03-1.52,3.33-4.21,3.33Z"/>
    <path class="cls-2" d="m132.24,68.76v1.15h-5.63c.05,1.34.83,2.16,2.18,2.16,1.1,0,1.98-.22,2.96-.69v1.84c-.88.43-1.73.62-3.07.62-2.61,0-4.48-1.44-4.48-4.47s1.66-4.59,4.13-4.59,3.92,1.42,3.92,3.97Zm-5.59-.43h3.34c-.02-1.04-.56-1.84-1.66-1.84-.94,0-1.57.58-1.68,1.84Z"/>
    <path class="cls-2" d="m139.85,64.85l-.18,2.24c-.18-.05-.5-.08-.7-.08-1.23,0-2.42.58-2.42,2.23v4.45h-2.39v-8.74h1.81l.35,1.47h.11c.51-.9,1.44-1.63,2.61-1.63.24,0,.61.02.8.06Z"/>
    <path class="cls-2" d="m142.68,64.95l1.68,4.98c.19.59.29,1.28.34,1.79h.06c.03-.58.14-1.17.35-1.79l1.68-4.98h2.5l-3.33,8.74h-2.45l-3.33-8.74h2.5Z"/>
    <path class="cls-2" d="m153.04,62.69c0,.88-.59,1.17-1.3,1.17s-1.3-.29-1.3-1.17.58-1.17,1.3-1.17,1.3.27,1.3,1.17Zm-.11,2.26v8.74h-2.39v-8.74h2.39Z"/>
    <path class="cls-2" d="m154.89,69.37c0-3.2,1.76-4.58,4.29-4.58,1.2,0,2.07.27,2.72.59l-.71,1.84c-.75-.3-1.38-.51-2.02-.51-1.23,0-1.86.88-1.86,2.64s.69,2.56,1.86,2.56c1.01,0,1.73-.29,2.45-.75v2.03c-.72.46-1.44.66-2.66.66-2.61,0-4.08-1.36-4.08-4.48Z"/>
    <path class="cls-2" d="m171.17,68.76v1.15h-5.63c.05,1.34.83,2.16,2.18,2.16,1.1,0,1.98-.22,2.96-.69v1.84c-.88.43-1.73.62-3.07.62-2.61,0-4.48-1.44-4.48-4.47s1.66-4.59,4.13-4.59,3.92,1.42,3.92,3.97Zm-5.59-.43h3.34c-.02-1.04-.56-1.84-1.66-1.84-.94,0-1.57.58-1.68,1.84Z"/>
  </g>
</svg>