<svg xmlns="http://www.w3.org/2000/svg" width="109.787" height="46.376" viewBox="0 0 109.787 46.376">
  <g id="Group_88" data-name="Group 88" transform="translate(-99.142 -516.689)">
    <path id="Path_2325" data-name="Path 2325" d="M8542.513,2217.456l3.33,3.525a53.6,53.6,0,0,1,13.552-3.525,89.612,89.612,0,0,1,16.366,0,50.712,50.712,0,0,0-14.2-1.906A132.178,132.178,0,0,0,8542.513,2217.456Z" transform="translate(-6428.313 -5309.157) rotate(27)" fill="#1a284f"/>
    <path id="Path_2326" data-name="Path 2326" d="M8565.08,2203.377a27.93,27.93,0,0,0,2.591,7.829,15.6,15.6,0,0,0,4.728,5.012l-3.971-.726-3.771-4.59Z" transform="translate(-6428.821 -5310.231) rotate(27)" fill="#1a284f"/>
    <path id="Path_2327" data-name="Path 2327" d="M8559.624,2197.21h4.45l-3.952,19.162-5.225,1.5-3.125.591.024-1.89a18.12,18.12,0,0,0,6.2-7.6C8559.958,2204.133,8559.624,2197.21,8559.624,2197.21Z" transform="translate(-6428.313 -5309.157) rotate(27)" fill="#1a284f"/>
    <circle id="Ellipse_75" data-name="Ellipse 75" cx="1.5" cy="1.5" r="1.5" transform="translate(189.86 546.89) rotate(11)" fill="#e3a92b"/>
    <circle id="Ellipse_76" data-name="Ellipse 76" cx="1.5" cy="1.5" r="1.5" transform="translate(195.016 544.279) rotate(11)" fill="#e3a92b"/>
    <circle id="Ellipse_77" data-name="Ellipse 77" cx="1.5" cy="1.5" r="1.5" transform="translate(198.621 539.506) rotate(11)" fill="#e3a92b"/>
    <circle id="Ellipse_78" data-name="Ellipse 78" cx="1.5" cy="1.5" r="1.5" transform="translate(199.594 534.408) rotate(11)" fill="#e3a92b"/>
    <path id="Path_2392" data-name="Path 2392" d="M-6.863,0h4.878A47.134,47.134,0,0,1-4.541,17.629c-3.23,8.87-10.365,17.85-10.365,17.85l-7.736-.135A47.02,47.02,0,0,0-11.158,21.512C-6.287,12.643-6.863,0-6.863,0Z" transform="matrix(0.799, 0.602, -0.602, 0.799, 178.123, 531.465)" fill="#1a284f"/>
    <path id="Path_2393" data-name="Path 2393" d="M8529.762,2205.437a56.255,56.255,0,0,0,4.056,9.172,11.7,11.7,0,0,0,5.131,4.678s-4.142,2.079-8.769,4.9-9.739,6.375-9.739,6.375l5.622-10.29,4.809-3.024-2.808-3.073Z" transform="matrix(0.848, 0.53, -0.53, 0.848, -5888.53, -5857.666)" fill="#1a284f"/>
    <path id="Path_2394" data-name="Path 2394" d="M8273.458,2516.552l-27.34,11.622-3.3-.539,23.571-12.894Z" transform="translate(-6678.61 -4763.499) rotate(21)" fill="#1a284f"/>
    <path id="Path_2397" data-name="Path 2397" d="M8529.535,2205.466a31.852,31.852,0,0,0,3.017,8.253,10.592,10.592,0,0,0,4.646,4.235s-3.75,1.882-7.938,4.434-8.818,5.772-8.818,5.772l5.091-9.317,4.354-2.738-2.542-2.782Z" transform="matrix(0.914, 0.407, -0.407, 0.914, -6759.812, -4953.242)" fill="#1a284f"/>
    <path id="Path_2398" data-name="Path 2398" d="M-6.863,0h4.878A47.134,47.134,0,0,1-4.541,17.629c-3.23,8.87-10.365,17.85-10.365,17.85l-7.736-.135A47.02,47.02,0,0,0-11.158,21.512C-6.287,12.643-6.863,0-6.863,0Z" transform="matrix(0.848, 0.53, -0.53, 0.848, 137.144, 528.687)" fill="#1a284f"/>
    <circle id="Ellipse_103" data-name="Ellipse 103" cx="1.5" cy="1.5" r="1.5" transform="translate(142.939 544.279) rotate(11)" fill="#e3a92b"/>
    <circle id="Ellipse_104" data-name="Ellipse 104" cx="1.5" cy="1.5" r="1.5" transform="translate(148.74 545.131) rotate(11)" fill="#e3a92b"/>
    <circle id="Ellipse_105" data-name="Ellipse 105" cx="1.5" cy="1.5" r="1.5" transform="translate(152.257 541.893) rotate(11)" fill="#e3a92b"/>
    <circle id="Ellipse_106" data-name="Ellipse 106" cx="1.5" cy="1.5" r="1.5" transform="translate(158.058 541.893) rotate(11)" fill="#e3a92b"/>
    <circle id="Ellipse_107" data-name="Ellipse 107" cx="1.5" cy="1.5" r="1.5" transform="translate(161.575 538.176) rotate(11)" fill="#e3a92b"/>
    <circle id="Ellipse_108" data-name="Ellipse 108" cx="1.5" cy="1.5" r="1.5" transform="translate(166.575 536.166) rotate(11)" fill="#e3a92b"/>
    <circle id="Ellipse_109" data-name="Ellipse 109" cx="1.5" cy="1.5" r="1.5" transform="translate(168.334 531.166) rotate(11)" fill="#e3a92b"/>
    <circle id="Ellipse_110" data-name="Ellipse 110" cx="1.5" cy="1.5" r="1.5" transform="translate(171.872 528.649) rotate(11)" fill="#e3a92b"/>
    <circle id="Ellipse_111" data-name="Ellipse 111" cx="1.5" cy="1.5" r="1.5" transform="translate(101.674 544.652) rotate(11)" fill="#e3a92b"/>
    <circle id="Ellipse_112" data-name="Ellipse 112" cx="1.5" cy="1.5" r="1.5" transform="translate(107.475 546.419) rotate(11)" fill="#e3a92b"/>
    <circle id="Ellipse_113" data-name="Ellipse 113" cx="1.5" cy="1.5" r="1.5" transform="translate(110.992 542.373) rotate(11)" fill="#e3a92b"/>
    <circle id="Ellipse_114" data-name="Ellipse 114" cx="1.5" cy="1.5" r="1.5" transform="translate(116.792 540.901) rotate(11)" fill="#e3a92b"/>
    <circle id="Ellipse_115" data-name="Ellipse 115" cx="1.5" cy="1.5" r="1.5" transform="translate(120.31 536.418) rotate(11)" fill="#e3a92b"/>
    <circle id="Ellipse_116" data-name="Ellipse 116" cx="1.5" cy="1.5" r="1.5" transform="translate(125.31 534.408) rotate(11)" fill="#e3a92b"/>
    <circle id="Ellipse_117" data-name="Ellipse 117" cx="1.5" cy="1.5" r="1.5" transform="translate(127.068 529.408) rotate(11)" fill="#e3a92b"/>
    <circle id="Ellipse_118" data-name="Ellipse 118" cx="1.5" cy="1.5" r="1.5" transform="translate(131.606 526.649) rotate(11)" fill="#e3a92b"/>
  </g>
</svg>
